<svg xmlns="http://www.w3.org/2000/svg" width="920" height="850" viewBox="0 0 920 850"><rect width="920" height="850" fill="white"/><g font-family="Arial" fill="#172033"><text x="50" y="32" font-size="22">Logged robot path vs BLine GUI prediction</text><text x="50" y="58" font-size="14">169 stored positions · same field coordinates · no fitted pose transform</text><text x="70" y="95" fill="#2563eb">Blue: GUI preview</text><text x="280" y="95" fill="#e05228">Orange: logged robot history</text><line x1="74.48963223687282" y1="475" x2="74.48963223687282" y2="85" stroke="#e5e7eb"/><text x="62.48963223687282" y="499" font-size="12">4.0</text><line x1="157.24816778152257" y1="475" x2="157.24816778152257" y2="85" stroke="#e5e7eb"/><text x="145.24816778152257" y="499" font-size="12">4.5</text><line x1="240.00670332617233" y1="475" x2="240.00670332617233" y2="85" stroke="#e5e7eb"/><text x="228.00670332617233" y="499" font-size="12">5.0</text><line x1="322.76523887082203" y1="475" x2="322.76523887082203" y2="85" stroke="#e5e7eb"/><text x="310.76523887082203" y="499" font-size="12">5.5</text><line x1="405.5237744154718" y1="475" x2="405.5237744154718" y2="85" stroke="#e5e7eb"/><text x="393.5237744154718" y="499" font-size="12">6.0</text><line x1="488.28230996012155" y1="475" x2="488.28230996012155" y2="85" stroke="#e5e7eb"/><text x="476.28230996012155" y="499" font-size="12">6.5</text><line x1="571.0408455047714" y1="475" x2="571.0408455047714" y2="85" stroke="#e5e7eb"/><text x="559.0408455047714" y="499" font-size="12">7.0</text><line x1="653.7993810494211" y1="475" x2="653.7993810494211" y2="85" stroke="#e5e7eb"/><text x="641.7993810494211" y="499" font-size="12">7.5</text><line x1="736.5579165940709" y1="475" x2="736.5579165940709" y2="85" stroke="#e5e7eb"/><text x="724.5579165940709" y="499" font-size="12">8.0</text><line x1="70" y1="446.87247614168365" x2="770.3349829412059" y2="446.87247614168365" stroke="#e5e7eb"/><text x="36" y="450.87247614168365" font-size="12">5.5</text><line x1="70" y1="364.1139405970339" x2="770.3349829412059" y2="364.1139405970339" stroke="#e5e7eb"/><text x="36" y="368.1139405970339" font-size="12">6.0</text><line x1="70" y1="281.3554050523841" x2="770.3349829412059" y2="281.3554050523841" stroke="#e5e7eb"/><text x="36" y="285.3554050523841" font-size="12">6.5</text><line x1="70" y1="198.59686950773437" x2="770.3349829412059" y2="198.59686950773437" stroke="#e5e7eb"/><text x="36" y="202.59686950773437" font-size="12">7.0</text><line x1="70" y1="115.83833396308466" x2="770.3349829412059" y2="115.83833396308466" stroke="#e5e7eb"/><text x="36" y="119.83833396308466" font-size="12">7.5</text><polyline points="145.84,131.24 147.43,131.28 149.81,131.34 152.99,131.42 156.96,131.52 161.72,131.64 167.28,131.78 173.64,131.95 180.78,132.13 188.73,132.33 197.46,132.55 206.99,132.79 217.32,133.06 228.44,133.34 240.35,133.64 252.40,133.95 264.44,134.25 276.49,134.56 288.53,134.87 300.58,135.17 312.63,135.48 324.67,135.79 336.72,136.09 348.76,136.40 360.81,136.70 372.85,137.01 384.90,137.32 396.95,137.62 408.99,137.93 421.04,138.24 433.08,138.54 444.46,139.27 455.16,140.44 465.21,142.04 474.60,144.09 483.34,146.60 491.44,149.58 498.90,153.03 505.99,156.76 513.08,160.49 520.16,164.23 527.25,167.96 534.34,171.70 541.43,175.43 548.51,179.17 555.60,182.90 562.69,186.63 569.78,190.37 576.86,194.10 583.95,197.84 591.04,201.57 598.13,205.31 605.21,209.04 612.30,212.77 619.39,216.51 626.47,220.24 633.56,223.98 640.65,227.71 647.12,231.95 652.97,236.68 658.19,241.89 662.76,247.57 666.70,253.71 669.97,260.31 672.59,267.34 674.53,274.80 675.80,282.68 676.97,290.60 678.15,298.52 679.33,306.45 680.50,314.37 681.68,322.30 682.86,330.22 684.03,338.14 685.21,346.07 686.39,353.99 687.26,361.19 687.82,367.65 688.08,373.37 688.04,378.36 687.71,382.61 687.09,386.11 686.19,388.88 685.01,390.90 683.56,392.18 681.83,392.71 679.84,392.49 677.59,391.52 675.07,389.80 672.31,387.33 669.29,384.10 666.03,380.12 662.53,375.38 658.80,369.91 655.07,364.44 651.34,358.96 647.61,353.49 643.88,348.02 640.16,342.55 636.43,337.08 632.70,331.61 628.97,326.14 625.24,320.67 621.51,315.20 617.79,309.73 614.06,304.25 610.33,298.78 606.60,293.31 602.87,287.84 599.14,282.37 595.41,276.90 591.69,271.43 587.96,265.96 584.23,260.49 580.50,255.02 576.77,249.54 573.04,244.07 569.32,238.60 565.59,233.13 561.86,227.66 558.13,222.19 554.40,216.72 550.67,211.25 546.95,205.78 543.22,200.30 538.73,195.09 533.50,190.13 527.53,185.45 520.81,181.05 513.35,176.95 505.16,173.16 496.24,169.68 486.61,166.53 476.25,163.73 465.18,161.28 453.41,159.20 440.94,157.51 427.79,156.21 414.43,155.03 401.08,153.85 387.72,152.67 374.37,151.49 361.01,150.31 347.66,149.13 334.30,147.94 320.95,146.76 307.59,145.58 294.24,144.40 280.88,143.22 267.53,142.04 254.17,140.86 240.82,139.68 227.47,138.50 214.11,137.32 201.55,136.18 189.78,135.09 178.81,134.03 168.62,133.02 159.24,132.06 150.64,131.14 142.84,130.27 135.83,129.45 129.61,128.67 124.19,127.95 119.56,127.28 115.72,126.65 112.68,126.09 110.43,125.57 108.97,125.11 108.30,124.70 108.43,124.35 109.34,124.05 111.05,123.81 113.56,123.63 116.85,123.50 120.94,123.44 125.82,123.43 131.49,123.48 137.96,123.60 145.21,123.78 153.26,124.02 162.10,124.32 171.74,124.69 182.16,125.12 193.37,125.63 205.38,126.20 217.42,126.77 229.45,127.34 241.49,127.91 253.53,128.48 265.56,129.05 277.60,129.63 289.63,130.20 301.67,130.77 313.71,131.34 325.74,131.91 337.78,132.49 349.81,133.06 361.85,133.63 373.89,134.20 385.92,134.77 397.96,135.34 410.00,135.92 422.03,136.49 434.07,137.06 446.13,138.43 458.19,140.59 470.26,143.54 482.30,147.29 494.30,151.83 506.25,157.17 518.12,163.30 529.99,169.54 541.85,175.78 553.72,182.02 565.58,188.27 577.45,194.51 589.31,200.75 601.18,206.99 613.04,213.23 624.91,219.48 636.77,225.72 648.64,231.96 659.88,238.70 670.48,245.90 680.43,253.57 689.72,261.67 698.33,270.18 706.25,279.08 713.45,288.33 719.93,297.92 725.68,307.80 730.67,317.93 734.90,328.28 738.35,338.80 741.01,349.43 742.88,360.13 743.96,370.82 744.75,380.77 745.27,389.98 745.51,398.44 745.48,406.15 745.18,413.12 744.63,419.33 743.82,424.79 742.77,429.50 741.47,433.45 739.92,436.64 738.14,439.08 736.14,440.75 733.90,441.67 731.44,441.82 728.76,441.20 725.87,439.83 722.77,437.68 719.47,434.77 715.97,431.09 712.27,426.63 708.38,421.41 704.47,416.07 700.56,410.73 696.64,405.39 692.73,400.05 688.81,394.71 684.90,389.37 680.99,384.03 677.07,378.69 673.16,373.35 669.24,368.01 665.33,362.67 661.41,357.33 657.50,351.99 653.59,346.65 649.67,341.31 645.76,335.97 641.84,330.63 637.93,325.29 634.02,319.95 630.10,314.61 626.19,309.27 622.27,303.94 618.36,298.60 614.44,293.26 610.53,287.92 606.62,282.58 602.70,277.24 598.79,271.90 594.87,266.56 590.96,261.22 587.05,255.88 583.13,250.54 579.22,245.20 575.30,239.86 571.39,234.52 567.47,229.18 563.56,223.84 559.65,218.50 555.73,213.16 551.82,207.82 547.90,202.48 543.99,197.14 539.32,192.06 533.91,187.24 527.75,182.69 520.85,178.44 513.21,174.48 504.84,170.82 495.74,167.49 485.92,164.50 475.39,161.84 464.14,159.55 452.19,157.62 439.55,156.08 426.22,154.93 412.86,153.81 399.50,152.68 386.14,151.55 372.78,150.43 359.42,149.30 346.06,148.17 332.70,147.05 319.34,145.92 305.98,144.79 292.63,143.67 279.27,142.54 265.91,141.41 252.55,140.28 239.50,139.18 227.25,138.15 215.78,137.18 205.11,136.28 195.23,135.45 186.14,134.68 177.85,133.98 170.34,133.35 163.63,132.79 157.71,132.29 152.58,131.85 148.24,131.49 145.04,131.22" fill="none" stroke="#2563eb" stroke-width="3"/><polyline points="145.04,131.22 145.08,130.98 145.40,131.34 150.27,133.83 176.53,133.96 184.81,133.91 210.93,134.06 222.95,134.13 249.59,134.40 271.47,134.54 319.53,135.60 346.48,135.85 371.46,136.29 395.33,137.24 419.69,138.34 458.69,156.16 486.21,156.25 511.71,156.38 529.19,157.39 554.51,168.81 575.64,179.35 601.36,195.50 622.27,211.24 636.06,221.38 655.40,234.49 681.86,252.71 692.43,263.22 704.88,282.23 713.44,310.89 714.89,323.50 711.24,348.84 703.61,373.68 697.57,385.77 689.23,395.71 677.68,401.70 663.67,401.55 654.38,396.00 661.16,389.75 671.22,384.87 688.87,379.06 703.10,368.89 703.24,362.72 689.23,355.38 672.11,349.36 658.61,343.90 639.34,333.15 626.26,322.97 615.65,311.94 614.89,300.33 602.80,284.04 590.57,269.39 580.88,255.22 569.51,241.04 552.82,218.91 541.80,204.15 532.75,188.84 518.94,169.16 508.34,155.80 491.31,139.70 467.21,124.17 432.78,112.96 412.94,109.83 385.66,110.15 353.97,115.69 325.11,122.63 297.34,129.05 267.88,134.64 239.25,137.11 204.46,138.03 176.80,136.96 145.05,134.01 127.85,132.71 107.99,130.22 98.04,129.18 94.83,128.82 95.38,130.42 96.30,132.13 98.09,133.19 107.14,133.44 115.96,131.98 127.02,129.21 136.38,126.98 150.63,124.91 189.14,124.82 239.49,127.78 264.17,129.19 296.99,131.65 307.64,132.29 315.90,129.85 326.66,126.96 346.94,124.68 365.85,125.17 389.57,128.60 412.83,133.19 443.25,139.52 466.53,142.98 489.59,145.24 511.62,148.57 533.06,156.03 553.57,168.82 579.84,184.86 595.14,194.46 617.60,208.50 622.04,210.59 632.02,215.55 665.32,231.65 687.67,248.64 701.47,264.51 713.67,296.06 717.86,324.03 716.03,353.90 708.01,382.96 695.39,410.14 679.66,433.33 666.51,447.77 661.57,450.17 657.13,449.50 654.89,445.93 668.22,427.22 692.89,395.24 691.96,381.33 698.57,366.47 692.45,358.34 678.38,350.03 659.99,341.16 659.96,328.70 645.59,318.87 632.17,309.89 617.68,299.56 603.83,286.93 592.00,274.17 578.38,256.22 565.00,235.93 558.25,224.88 547.79,207.82 538.08,192.16 525.13,172.63 508.86,154.80 487.18,137.81 475.89,131.37 468.58,127.31 459.40,123.01 437.52,119.81 422.04,120.45 400.66,122.26 379.26,125.69 355.88,129.53 334.59,132.88 311.82,135.58 286.47,137.36 254.28,137.75 231.32,136.90 206.69,134.84 194.67,133.89 177.99,132.84 166.97,132.04 160.16,131.70 155.29,131.41 153.70,131.36 150.60,131.16 149.93,130.63 149.01,130.91 148.42,131.25 147.43,131.38 147.07,131.27 146.24,131.02 145.80,130.99 145.38,131.02 145.03,131.00" fill="none" stroke="#e05228" stroke-width="2"/><circle cx="145.04459413010846" cy="131.2181802087024" r="4" fill="#2563eb"/><circle cx="502.32643344204865" cy="140.303412240794" r="4" fill="#2563eb"/><circle cx="704.1513292454969" cy="261.16894306233326" r="4" fill="#2563eb"/><circle cx="696.3571303679016" cy="421.096502660947" r="4" fill="#2563eb"/><circle cx="502.32643344204865" cy="140.303412240794" r="4" fill="#2563eb"/><circle cx="145.04459413010846" cy="131.2181802087024" r="4" fill="#2563eb"/><circle cx="502.32643344204865" cy="140.303412240794" r="4" fill="#2563eb"/><circle cx="704.1513292454969" cy="261.16894306233326" r="4" fill="#2563eb"/><circle cx="696.3571303679016" cy="421.096502660947" r="4" fill="#2563eb"/><circle cx="502.32643344204865" cy="140.303412240794" r="4" fill="#2563eb"/><circle cx="145.04459413010846" cy="131.2181802087024" r="4" fill="#2563eb"/><text x="400" y="520" font-size="13">Field x (meters); y axis in meters</text><text x="50" y="558" font-size="20">Order-aligned deviation along traveled distance</text><text x="50" y="583" font-size="14">RMS 10.83 cm · P95 24.97 cm · max 34.97 cm</text><line x1="70" y1="790" x2="830" y2="790" stroke="#e5e7eb"/><text x="32" y="794" font-size="12">0</text><line x1="70" y1="743.2098329279521" x2="830" y2="743.2098329279521" stroke="#e5e7eb"/><text x="32" y="747.2098329279521" font-size="12">10</text><line x1="70" y1="696.4196658559042" x2="830" y2="696.4196658559042" stroke="#e5e7eb"/><text x="32" y="700.4196658559042" font-size="12">20</text><line x1="70" y1="649.6294987838563" x2="830" y2="649.6294987838563" stroke="#e5e7eb"/><text x="32" y="653.6294987838563" font-size="12">30</text><polyline points="70.00,787.75 70.40,788.55 70.79,786.53 71.19,784.50 71.58,783.02 71.98,783.12 72.38,783.21 72.77,783.31 73.17,783.40 73.57,783.50 73.96,783.60 74.36,783.69 74.75,783.79 75.15,783.89 75.55,783.98 75.94,784.08 76.34,784.17 76.74,784.27 77.13,784.37 77.53,784.46 77.92,784.58 78.32,784.72 78.72,784.87 79.11,785.02 79.51,785.16 79.91,785.29 80.30,785.38 80.70,785.47 81.09,785.57 81.49,785.66 81.89,785.75 82.28,785.84 82.68,785.94 83.07,786.03 83.47,786.12 83.87,786.21 84.26,786.31 84.66,786.40 85.06,786.49 85.45,786.58 85.85,786.68 86.24,786.77 86.64,786.86 87.04,786.95 87.43,787.04 87.83,787.13 88.23,787.22 88.62,787.31 89.02,787.39 89.41,787.46 89.81,787.53 90.21,787.61 90.60,787.68 91.00,787.75 91.39,787.82 91.79,787.89 92.19,787.96 92.58,788.04 92.98,788.11 93.38,788.18 93.77,788.25 94.17,788.32 94.56,788.39 94.96,788.47 95.36,788.54 95.75,788.63 96.15,788.72 96.55,788.81 96.94,788.90 97.34,788.99 97.73,789.08 98.13,789.17 98.53,789.25 98.92,789.34 99.32,789.43 99.72,789.52 100.11,789.61 100.51,789.70 100.90,789.71 101.30,789.73 101.70,789.74 102.09,789.76 102.49,789.77 102.88,789.79 103.28,789.81 103.68,789.82 104.07,789.84 104.47,789.85 104.87,789.87 105.26,789.88 105.66,789.90 106.05,789.91 106.45,789.93 106.85,789.94 107.24,789.96 107.64,789.97 108.04,789.99 108.43,790.00 108.83,789.98 109.22,789.97 109.62,789.95 110.02,789.93 110.41,789.92 110.81,789.90 111.20,789.89 111.60,789.87 112.00,789.86 112.39,789.78 112.79,789.70 113.19,789.63 113.58,789.55 113.98,789.47 114.37,789.40 114.77,789.32 115.17,789.24 115.56,789.16 115.96,789.09 116.36,789.01 116.75,788.93 117.15,788.85 117.54,788.78 117.94,788.70 118.34,788.62 118.73,788.57 119.13,788.54 119.53,788.50 119.92,788.47 120.32,788.43 120.71,788.40 121.11,788.36 121.51,788.33 121.90,788.29 122.30,788.25 122.69,788.22 123.09,788.18 123.49,788.15 123.88,788.11 124.28,788.08 124.68,788.10 125.07,788.17 125.47,788.24 125.86,788.30 126.26,788.37 126.66,788.44 127.05,788.51 127.45,788.57 127.85,788.64 128.24,788.71 128.64,788.78 129.03,788.84 129.43,788.91 129.83,788.98 130.22,789.05 130.62,789.14 131.01,789.23 131.41,789.33 131.81,789.42 132.20,789.51 132.60,789.60 133.00,789.69 133.39,789.79 133.79,789.88 134.18,789.97 134.58,789.94 134.98,789.85 135.37,789.75 135.77,789.66 136.17,788.80 136.56,786.96 136.96,785.13 137.35,783.29 137.75,781.46 138.15,779.62 138.54,777.79 138.94,775.95 139.34,774.12 139.73,772.40 140.13,770.73 140.52,769.07 140.92,767.40 141.32,765.73 141.71,764.06 142.11,762.40 142.50,760.84 142.90,759.36 143.30,757.89 143.69,756.42 144.09,754.94 144.49,753.47 144.88,752.01 145.28,750.76 145.67,749.51 146.07,748.26 146.47,748.07 146.86,748.80 147.26,749.57 147.66,750.56 148.05,751.54 148.45,752.52 148.84,753.51 149.24,754.49 149.64,755.70 150.03,756.98 150.43,758.25 150.82,759.53 151.22,760.80 151.62,762.26 152.01,763.86 152.41,765.45 152.81,767.05 153.20,768.65 153.60,770.38 153.99,772.33 154.39,774.27 154.79,776.21 155.18,778.15 155.58,780.14 155.98,782.30 156.37,784.46 156.77,786.62 157.16,788.78 157.56,789.06 157.96,786.90 158.35,784.74 158.75,782.58 159.15,780.53 159.54,778.59 159.94,776.65 160.33,774.72 160.73,772.78 161.13,770.84 161.52,768.91 161.92,766.97 162.31,765.03 162.71,763.09 163.11,761.16 163.50,760.75 163.90,760.46 164.30,760.17 164.69,759.88 165.09,759.60 165.48,759.31 165.88,759.02 166.28,758.73 166.67,758.45 167.07,758.16 167.47,757.87 167.86,757.59 168.26,757.30 168.65,757.01 169.05,756.72 169.45,756.44 169.84,756.18 170.24,756.07 170.63,755.97 171.03,755.86 171.43,755.76 171.82,755.65 172.22,755.55 172.62,755.44 173.01,755.34 173.41,755.23 173.80,755.13 174.20,755.03 174.60,754.92 174.99,754.82 175.39,754.71 175.79,755.01 176.18,755.36 176.58,755.72 176.97,756.07 177.37,756.43 177.77,756.78 178.16,757.14 178.56,757.49 178.96,757.85 179.35,758.20 179.75,758.56 180.14,758.91 180.54,759.26 180.94,759.62 181.33,759.97 181.73,760.33 182.12,760.68 182.52,761.04 182.92,761.60 183.31,762.35 183.71,763.10 184.11,763.84 184.50,764.59 184.90,765.34 185.29,766.09 185.69,766.84 186.09,767.58 186.48,768.33 186.88,769.08 187.28,769.83 187.67,770.58 188.07,771.33 188.46,772.07 188.86,772.82 189.26,773.53 189.65,774.23 190.05,774.92 190.44,775.62 190.84,776.31 191.24,777.01 191.63,777.70 192.03,778.40 192.43,779.09 192.82,779.79 193.22,780.41 193.61,780.93 194.01,781.45 194.41,781.96 194.80,782.46 195.20,782.54 195.60,782.61 195.99,782.69 196.39,782.76 196.78,782.74 197.18,782.34 197.58,781.95 197.97,781.55 198.37,781.16 198.77,780.54 199.16,779.70 199.56,778.85 199.95,778.01 200.35,777.16 200.75,775.98 201.14,774.65 201.54,773.31 201.93,771.98 202.33,770.64 202.73,768.98 203.12,767.16 203.52,765.35 203.92,763.53 204.31,761.71 204.71,759.77 205.10,757.50 205.50,755.23 205.90,752.96 206.29,750.69 206.69,749.07 207.09,747.39 207.48,745.43 207.88,743.47 208.27,741.51 208.67,739.55 209.07,737.59 209.46,735.50 209.86,733.15 210.25,731.52 210.65,730.03 211.05,728.53 211.44,727.04 211.84,725.49 212.24,723.69 212.63,721.78 213.03,719.87 213.42,717.96 213.82,716.05 214.22,714.14 214.61,712.19 215.01,710.23 215.41,708.42 215.80,707.75 216.20,707.09 216.59,706.42 216.99,705.75 217.39,705.09 217.78,704.42 218.18,703.75 218.58,703.09 218.97,702.42 219.37,701.75 219.76,701.09 220.16,700.42 220.56,699.76 220.95,699.09 221.35,698.42 221.74,697.76 222.14,697.09 222.54,696.46 222.93,696.62 223.33,696.77 223.73,696.92 224.12,697.08 224.52,697.23 224.91,697.39 225.31,697.54 225.71,698.14 226.10,699.48 226.50,700.82 226.90,702.16 227.29,703.50 227.69,704.84 228.08,706.18 228.48,707.52 228.88,708.86 229.27,710.20 229.67,711.54 230.06,712.88 230.46,714.22 230.86,715.56 231.25,716.90 231.65,718.24 232.05,720.19 232.44,722.13 232.84,724.03 233.23,725.93 233.63,727.83 234.03,729.73 234.42,731.56 234.82,733.32 235.22,735.07 235.61,736.83 236.01,738.59 236.40,740.20 236.80,741.78 237.20,743.36 237.59,744.93 237.99,746.52 238.39,748.58 238.78,750.64 239.18,752.70 239.57,754.55 239.97,756.32 240.37,758.08 240.76,759.72 241.16,761.10 241.55,763.45 241.95,765.69 242.35,767.47 242.74,769.22 243.14,770.64 243.54,771.44 243.93,772.11 244.33,772.16 244.72,773.28 245.12,773.75 245.52,773.06 245.91,772.12 246.31,770.28 246.71,767.74 247.10,765.13 247.50,762.85 247.89,761.24 248.29,759.44 248.69,757.51 249.08,755.10 249.48,752.50 249.87,749.90 250.27,747.16 250.67,744.13 251.06,742.97 251.46,742.08 251.86,740.98 252.25,739.68 252.65,738.39 253.04,737.08 253.44,737.66 253.84,742.32 254.23,746.98 254.63,751.64 255.03,756.29 255.42,760.94 255.82,765.56 256.21,770.14 256.61,774.68 257.01,779.15 257.40,783.62 257.80,788.09 258.20,787.45 258.59,783.20 258.99,778.96 259.38,774.71 259.78,770.61 260.18,766.56 260.57,762.50 260.97,758.45 261.36,754.37 261.76,750.18 262.16,745.88 262.55,741.52 262.95,736.90 263.35,732.22 263.74,727.55 264.14,722.87 264.53,718.19 264.93,713.52 265.33,708.84 265.72,704.16 266.12,699.48 266.52,694.81 266.91,690.52 267.31,687.55 267.70,684.45 268.10,681.23 268.50,680.25 268.89,680.89 269.29,682.46 269.68,684.01 270.08,685.68 270.48,687.51 270.87,689.43 271.27,691.48 271.67,693.52 272.06,695.64 272.46,698.38 272.85,701.15 273.25,703.92 273.65,706.70 274.04,709.47 274.44,712.24 274.84,715.01 275.23,717.79 275.63,720.56 276.02,723.33 276.42,726.11 276.82,728.71 277.21,731.30 277.61,733.90 278.01,736.50 278.40,739.09 278.80,741.69 279.19,744.29 279.59,746.88 279.99,749.39 280.38,751.49 280.78,753.58 281.17,755.67 281.57,757.77 281.97,759.86 282.36,761.95 282.76,764.05 283.16,766.14 283.55,768.23 283.95,770.33 284.34,772.42 284.74,774.52 285.14,776.61 285.53,778.15 285.93,779.58 286.33,781.01 286.72,782.45 287.12,783.88 287.51,785.31 287.91,786.74 288.31,788.18 288.70,789.61 289.10,788.96 289.49,788.07 289.89,787.28 290.29,786.50 290.68,785.72 291.08,784.93 291.48,784.15 291.87,783.37 292.27,782.58 292.66,781.80 293.06,782.86 293.46,785.23 293.85,787.61 294.25,789.99 294.65,787.64 295.04,785.26 295.44,782.88 295.83,781.93 296.23,782.12 296.63,782.30 297.02,782.49 297.42,782.68 297.82,782.87 298.21,783.06 298.61,783.25 299.00,783.43 299.40,783.62 299.80,783.81 300.19,784.00 300.59,784.27 300.98,784.72 301.38,785.17 301.78,785.63 302.17,786.08 302.57,786.53 302.97,786.99 303.36,787.44 303.76,787.89 304.15,788.35 304.55,788.80 304.95,789.25 305.34,789.36 305.74,789.37 306.14,789.38 306.53,789.39 306.93,789.40 307.32,789.41 307.72,789.42 308.12,789.43 308.51,789.44 308.91,789.45 309.30,789.59 309.70,789.96 310.10,789.68 310.49,789.32 310.89,788.96 311.29,788.60 311.68,788.24 312.08,787.88 312.47,787.52 312.87,787.16 313.27,786.80 313.66,786.49 314.06,786.27 314.46,786.04 314.85,785.82 315.25,785.60 315.64,785.37 316.04,785.15 316.44,784.92 316.83,784.70 317.23,784.47 317.63,784.25 318.02,784.03 318.42,783.80 318.81,783.58 319.21,783.35 319.61,783.13 320.00,782.90 320.40,782.69 320.79,782.49 321.19,782.29 321.59,782.09 321.98,781.88 322.38,781.68 322.78,781.48 323.17,781.27 323.57,781.07 323.96,780.87 324.36,780.67 324.76,780.74 325.15,781.14 325.55,781.96 325.95,782.78 326.34,783.60 326.74,784.49 327.13,785.78 327.53,787.07 327.93,788.35 328.32,789.64 328.72,788.78 329.11,787.36 329.51,786.00 329.91,784.64 330.30,783.28 330.70,781.62 331.10,779.89 331.49,778.15 331.89,776.42 332.28,774.69 332.68,772.83 333.08,770.77 333.47,768.71 333.87,766.65 334.27,764.59 334.66,762.60 335.06,760.70 335.45,758.60 335.85,756.50 336.25,754.39 336.64,752.29 337.04,750.19 337.44,748.08 337.83,745.82 338.23,743.46 338.62,741.10 339.02,739.32 339.42,737.56 339.81,735.80 340.21,734.04 340.60,732.15 341.00,730.15 341.40,728.15 341.79,726.15 342.19,724.15 342.59,722.15 342.98,720.14 343.38,718.13 343.77,715.94 344.17,713.73 344.57,712.16 344.96,710.74 345.36,709.32 345.76,707.90 346.15,706.48 346.55,705.03 346.94,703.42 347.34,701.79 347.74,700.17 348.13,698.54 348.53,696.92 348.92,695.29 349.32,693.67 349.72,692.03 350.11,690.25 350.51,688.44 350.91,686.63 351.30,685.38 351.70,684.73 352.09,684.08 352.49,683.42 352.89,682.77 353.28,682.03 353.68,681.20 354.08,680.36 354.47,679.53 354.87,678.69 355.26,677.86 355.66,677.02 356.06,676.19 356.45,675.34 356.85,674.38 357.25,673.37 357.64,672.37 358.04,671.37 358.43,670.36 358.83,669.36 359.23,668.35 359.62,667.35 360.02,666.79 360.41,666.47 360.81,666.15 361.21,665.83 361.60,665.51 362.00,665.19 362.40,664.87 362.79,664.55 363.19,664.22 363.58,663.90 363.98,663.58 364.38,663.26 364.77,663.32 365.17,663.78 365.57,664.25 365.96,664.71 366.36,665.18 366.75,665.65 367.15,666.11 367.55,666.58 367.94,667.05 368.34,667.51 368.73,667.98 369.13,668.44 369.53,668.91 369.92,669.38 370.32,669.84 370.72,670.31 371.11,670.78 371.51,671.98 371.90,673.19 372.30,674.40 372.70,675.61 373.09,676.82 373.49,678.03 373.89,679.24 374.28,680.44 374.68,681.65 375.07,682.86 375.47,684.07 375.87,685.28 376.26,686.49 376.66,687.70 377.06,688.91 377.45,690.12 377.85,691.33 378.24,692.54 378.64,693.74 379.04,695.11 379.43,696.60 379.83,698.09 380.22,699.58 380.62,701.07 381.02,702.56 381.41,704.05 381.81,705.54 382.21,707.03 382.60,708.52 383.00,710.01 383.39,711.50 383.79,712.99 384.19,714.48 384.58,715.97 384.98,717.46 385.38,718.95 385.77,720.44 386.17,721.90 386.56,723.35 386.96,724.80 387.36,726.26 387.75,727.71 388.15,729.16 388.54,730.61 388.94,732.06 389.34,733.51 389.73,734.96 390.13,736.41 390.53,737.86 390.92,739.32 391.32,740.77 391.71,742.22 392.11,743.67 392.51,745.12 392.90,746.50 393.30,747.77 393.70,749.05 394.09,750.32 394.49,751.59 394.88,752.87 395.28,754.14 395.68,755.41 396.07,756.69 396.47,757.96 396.87,759.23 397.26,760.51 397.66,761.78 398.05,763.05 398.45,764.33 398.85,765.60 399.24,766.87 399.64,768.15 400.03,769.29 400.43,770.10 400.83,770.91 401.22,771.72 401.62,772.54 402.02,773.35 402.41,774.16 402.81,774.97 403.20,775.78 403.60,776.59 404.00,777.41 404.39,778.22 404.79,779.03 405.19,779.84 405.58,780.65 405.98,781.46 406.37,782.27 406.77,783.09 407.17,783.64 407.56,784.18 407.96,784.71 408.36,785.25 408.75,785.78 409.15,786.32 409.54,786.86 409.94,787.39 410.34,787.93 410.73,788.46 411.13,789.00 411.52,789.53 411.92,789.93 412.32,789.40 412.71,788.86 413.11,788.32 413.51,787.77 413.90,787.23 414.30,786.68 414.69,786.13 415.09,785.59 415.49,785.31 415.88,785.07 416.28,784.82 416.68,784.57 417.07,784.31 417.47,784.06 417.86,783.81 418.26,783.55 418.66,783.30 419.05,783.04 419.45,782.77 419.84,782.50 420.24,782.24 420.64,781.97 421.03,781.71 421.43,781.44 421.83,781.20 422.22,781.17 422.62,781.14 423.01,781.11 423.41,781.08 423.81,781.05 424.20,781.01 424.60,780.96 425.00,780.91 425.39,780.87 425.79,780.82 426.18,780.77 426.58,780.71 426.98,780.64 427.37,780.58 427.77,780.51 428.17,780.45 428.56,780.36 428.96,780.27 429.35,780.19 429.75,780.03 430.15,779.85 430.54,779.66 430.94,779.46 431.33,779.27 431.73,779.08 432.13,778.85 432.52,778.63 432.92,778.40 433.32,778.16 433.71,778.01 434.11,777.97 434.50,777.94 434.90,777.85 435.30,777.76 435.69,777.66 436.09,777.50 436.49,777.33 436.88,777.09 437.28,776.81 437.67,776.41 438.07,775.90 438.47,775.02 438.86,773.43 439.26,771.22 439.65,768.26 440.05,764.78 440.45,760.96 440.84,756.93 441.24,752.75 441.64,750.19 442.03,750.15 442.43,750.52 442.82,752.36 443.22,755.64 443.62,758.70 444.01,761.32 444.41,763.60 444.81,765.31 445.20,767.00 445.60,768.74 445.99,764.96 446.39,765.14 446.79,765.61 447.18,766.22 447.58,767.23 447.98,768.29 448.37,769.35 448.77,770.48 449.16,771.61 449.56,772.74 449.96,773.90 450.35,775.03 450.75,776.16 451.14,777.31 451.54,778.47 451.94,779.64 452.33,780.65 452.73,781.42 453.13,782.21 453.52,782.99 453.92,783.78 454.31,784.56 454.71,785.37 455.11,786.18 455.50,786.99 455.90,787.36 456.30,787.51 456.69,787.68 457.09,787.86 457.48,788.03 457.88,788.20 458.28,788.37 458.67,788.56 459.07,788.75 459.46,788.94 459.86,789.13 460.26,789.32 460.65,789.51 461.05,789.72 461.45,789.92 461.84,789.87 462.24,789.67 462.63,789.46 463.03,789.25 463.43,789.04 463.82,788.82 464.22,788.60 464.62,788.38 465.01,788.27 465.41,788.34 465.80,788.41 466.20,788.46 466.60,788.51 466.99,788.57 467.39,788.62 467.79,788.68 468.18,788.73 468.58,788.78 468.97,788.84 469.37,788.89 469.77,788.94 470.16,788.99 470.56,789.05 470.95,789.10 471.35,789.15 471.75,789.21 472.14,789.26 472.54,789.31 472.94,789.37 473.33,789.42 473.73,789.47 474.12,789.53 474.52,789.58 474.92,789.63 475.31,789.68 475.71,789.74 476.11,789.79 476.50,789.84 476.90,789.90 477.29,789.94 477.69,789.99 478.09,789.97 478.48,789.92 478.88,789.88 479.27,789.83 479.67,789.79 480.07,789.75 480.46,789.70 480.86,789.66 481.26,789.61 481.65,789.57 482.05,789.52 482.44,789.48 482.84,789.43 483.24,789.31 483.63,789.18 484.03,789.05 484.43,788.92 484.82,788.79 485.22,788.66 485.61,788.54 486.01,788.41 486.41,788.28 486.80,788.15 487.20,788.02 487.60,787.89 487.99,787.77 488.39,787.64 488.78,787.51 489.18,787.38 489.58,787.25 489.97,787.12 490.37,786.99 490.76,786.87 491.16,786.82 491.56,786.76 491.95,786.70 492.35,786.64 492.75,786.58 493.14,786.52 493.54,787.52 493.93,789.06 494.33,789.40 494.73,787.86 495.12,786.33 495.52,784.84 495.92,783.41 496.31,781.98 496.71,780.56 497.10,779.13 497.50,777.70 497.90,776.27 498.29,775.34 498.69,774.60 499.08,773.86 499.48,773.12 499.88,772.38 500.27,771.64 500.67,770.89 501.07,770.15 501.46,769.41 501.86,768.67 502.25,767.93 502.65,767.19 503.05,766.70 503.44,766.60 503.84,766.50 504.24,766.39 504.63,766.29 505.03,766.19 505.42,766.09 505.82,765.99 506.22,765.88 506.61,765.78 507.01,765.68 507.41,765.58 507.80,766.01 508.20,766.46 508.59,766.91 508.99,767.36 509.39,767.81 509.78,768.26 510.18,768.71 510.57,769.16 510.97,769.61 511.37,770.06 511.76,770.50 512.16,770.95 512.56,771.40 512.95,771.85 513.35,772.42 513.74,773.11 514.14,773.79 514.54,774.48 514.93,775.17 515.33,775.86 515.73,776.54 516.12,777.23 516.52,777.92 516.91,778.61 517.31,779.29 517.71,779.98 518.10,780.67 518.50,781.36 518.89,782.05 519.29,782.79 519.69,783.52 520.08,784.26 520.48,784.99 520.88,785.72 521.27,786.46 521.67,787.19 522.06,787.93 522.46,788.66 522.86,789.40 523.25,789.87 523.65,789.14 524.05,788.43 524.44,788.00 524.84,787.57 525.23,787.14 525.63,786.71 526.03,786.27 526.42,785.95 526.82,785.79 527.22,785.86 527.61,786.00 528.01,786.13 528.40,786.27 528.80,786.41 529.20,786.55 529.59,786.69 529.99,786.95 530.38,787.38 530.78,787.81 531.18,788.25 531.57,788.68 531.97,789.15 532.37,789.82 532.76,789.51 533.16,788.60 533.55,787.65 533.95,786.70 534.35,785.75 534.74,784.80 535.14,783.85 535.54,782.90 535.93,781.94 536.33,780.72 536.72,779.50 537.12,778.28 537.52,777.10 537.91,776.11 538.31,775.13 538.70,774.14 539.10,773.16 539.50,771.94 539.89,770.69 540.29,769.44 540.69,768.19 541.08,766.94 541.48,765.70 541.87,764.45 542.27,763.20 542.67,761.85 543.06,760.95 543.46,760.29 543.86,759.63 544.25,758.97 544.65,758.31 545.04,757.66 545.44,757.00 545.84,756.34 546.23,755.64 546.63,754.95 547.03,754.25 547.42,753.55 547.82,752.86 548.21,752.16 548.61,752.50 549.01,752.85 549.40,753.19 549.80,753.53 550.19,753.87 550.59,754.22 550.99,754.56 551.38,754.90 551.78,755.24 552.18,755.59 552.57,755.93 552.97,756.27 553.36,756.62 553.76,756.96 554.16,757.28 554.55,757.58 554.95,757.88 555.35,758.18 555.74,758.48 556.14,758.78 556.53,759.07 556.93,759.37 557.33,759.67 557.72,759.97 558.12,760.27 558.51,760.57 558.91,760.86 559.31,761.16 559.70,761.46 560.10,761.76 560.50,762.06 560.89,762.36 561.29,762.65 561.68,763.00 562.08,763.35 562.48,763.71 562.87,764.06 563.27,764.42 563.67,764.77 564.06,765.13 564.46,765.48 564.85,765.84 565.25,766.19 565.65,766.55 566.04,766.90 566.44,767.25 566.84,767.59 567.23,767.94 567.63,768.29 568.02,768.63 568.42,768.98 568.82,769.33 569.21,769.68 569.61,770.02 570.00,770.37 570.40,770.72 570.80,771.07 571.19,771.41 571.59,771.76 571.99,772.11 572.38,771.96 572.78,771.75 573.17,771.54 573.57,771.43 573.97,771.32 574.36,771.21 574.76,771.11 575.16,771.00 575.55,770.89 575.95,770.78 576.34,770.62 576.74,770.46 577.14,770.30 577.53,770.14 577.93,769.98 578.32,769.82 578.72,769.67 579.12,769.51 579.51,769.35 579.91,769.19 580.31,769.03 580.70,768.87 581.10,768.71 581.49,768.41 581.89,767.99 582.29,767.58 582.68,767.16 583.08,766.74 583.48,766.32 583.87,765.91 584.27,765.49 584.66,764.99 585.06,765.09 585.46,765.33 585.85,765.58 586.25,765.83 586.65,766.08 587.04,766.32 587.44,766.57 587.83,766.75 588.23,766.72 588.63,766.69 589.02,766.66 589.42,766.63 589.81,766.60 590.21,766.57 590.61,766.54 591.00,766.41 591.40,766.09 591.80,766.62 592.19,767.27 592.59,767.91 592.98,768.55 593.38,769.20 593.78,769.84 594.17,770.32 594.57,770.67 594.97,771.03 595.36,771.38 595.76,771.73 596.15,772.09 596.55,772.71 596.95,774.63 597.34,776.29 597.74,777.93 598.13,779.57 598.53,781.21 598.93,782.85 599.32,784.49 599.72,786.12 600.12,787.74 600.51,789.09 600.91,789.57 601.30,788.22 601.70,786.87 602.10,785.52 602.49,784.18 602.89,782.83 603.29,781.70 603.68,780.65 604.08,779.61 604.47,778.56 604.87,776.80 605.27,774.78 605.66,772.55 606.06,770.89 606.46,769.16 606.85,767.43 607.25,765.70 607.64,763.98 608.04,762.25 608.44,760.32 608.83,758.93 609.23,757.51 609.62,756.08 610.02,754.66 610.42,753.24 610.81,751.26 611.21,750.34 611.61,748.63 612.00,746.60 612.40,744.57 612.79,740.54 613.19,739.57 613.59,738.19 613.98,736.50 614.38,734.77 614.78,733.04 615.17,729.24 615.57,728.52 615.96,727.46 616.36,726.11 616.76,724.69 617.15,723.28 617.55,720.07 617.94,719.55 618.34,718.72 618.74,717.13 619.13,711.44 619.53,710.67 619.93,709.64 620.32,708.35 620.72,706.82 621.11,700.99 621.51,700.57 621.91,699.91 622.30,699.01 622.70,697.88 623.10,696.54 623.49,691.25 623.89,690.80 624.28,690.13 624.68,689.25 625.08,688.16 625.47,683.02 625.87,682.39 626.27,681.08 626.66,674.31 627.06,673.58 627.45,672.66 627.85,671.56 628.25,670.29 628.64,664.78 629.04,663.96 629.43,662.98 629.83,661.84 630.23,657.25 630.62,656.47 631.02,655.52 631.42,654.42 631.81,651.02 632.21,650.19 632.60,649.22 633.00,646.60 633.40,645.10 633.79,643.47 634.19,641.82 634.59,640.99 634.98,641.97 635.38,641.12 635.77,643.58 636.17,642.65 636.57,646.56 636.96,651.85 637.36,650.72 637.75,657.18 638.15,664.69 638.55,663.09 638.94,671.02 639.34,668.97 639.74,666.59 640.13,673.28 640.53,670.07 640.92,675.49 641.32,671.81 641.72,668.05 642.11,670.70 642.51,666.54 642.91,662.34 643.30,658.11 643.70,656.77 644.09,652.28 644.49,647.69 644.89,643.04 645.28,638.86 645.68,634.52 646.08,631.21 646.47,627.89 646.87,626.36 647.26,626.70 647.66,627.03 648.06,631.24 648.45,635.69 648.85,640.13 649.24,644.57 649.64,649.01 650.04,653.46 650.43,657.90 650.83,662.34 651.23,666.79 651.62,671.23 652.02,675.67 652.41,680.11 652.81,684.56 653.21,689.00 653.60,693.50 654.00,697.99 654.40,702.49 654.79,706.98 655.19,711.48 655.58,715.97 655.98,720.47 656.38,724.97 656.77,729.46 657.17,733.96 657.56,738.45 657.96,742.95 658.36,747.44 658.75,751.94 659.15,756.43 659.55,760.93 659.94,765.42 660.34,769.92 660.73,774.41 661.13,778.91 661.53,783.40 661.92,787.90 662.32,787.61 662.72,783.11 663.11,779.94 663.51,777.43 663.90,774.92 664.30,772.41 664.70,769.90 665.09,767.39 665.49,764.88 665.89,762.37 666.28,759.49 666.68,755.43 667.07,751.37 667.47,747.31 667.87,743.24 668.26,739.18 668.66,735.12 669.05,731.06 669.45,727.00 669.85,722.94 670.24,720.59 670.64,720.64 671.04,720.70 671.43,720.76 671.83,720.82 672.22,720.88 672.62,721.41 673.02,723.26 673.41,725.10 673.81,726.94 674.21,728.79 674.60,730.63 675.00,732.48 675.39,734.32 675.79,736.16 676.19,738.01 676.58,739.99 676.98,742.19 677.37,744.38 677.77,746.58 678.17,748.77 678.56,750.97 678.96,753.16 679.36,755.36 679.75,757.55 680.15,759.75 680.54,761.94 680.94,764.14 681.34,766.04 681.73,763.28 682.13,760.53 682.53,757.77 682.92,755.01 683.32,752.25 683.71,749.50 684.11,746.74 684.51,746.29 684.90,747.84 685.30,749.39 685.70,750.95 686.09,752.50 686.49,754.05 686.88,755.61 687.28,757.16 687.68,758.71 688.07,760.27 688.47,761.82 688.86,763.42 689.26,765.02 689.66,766.62 690.05,768.21 690.45,769.81 690.85,771.41 691.24,773.01 691.64,774.61 692.03,776.20 692.43,777.77 692.83,779.23 693.22,780.70 693.62,782.17 694.02,783.63 694.41,785.10 694.81,786.57 695.20,788.03 695.60,789.50 696.00,789.04 696.39,787.57 696.79,786.38 697.18,785.45 697.58,784.53 697.98,783.60 698.37,782.68 698.77,781.76 699.17,780.83 699.56,779.91 699.96,778.98 700.35,778.06 700.75,777.13 701.15,776.28 701.54,775.74 701.94,775.20 702.34,774.67 702.73,774.13 703.13,773.59 703.52,773.05 703.92,772.52 704.32,771.98 704.71,771.44 705.11,770.90 705.51,770.67 705.90,770.60 706.30,770.52 706.69,770.44 707.09,770.36 707.49,770.28 707.88,770.21 708.28,770.13 708.67,770.05 709.07,769.97 709.47,769.90 709.86,769.82 710.26,769.74 710.66,769.68 711.05,769.91 711.45,770.15 711.84,770.38 712.24,770.61 712.64,770.84 713.03,771.08 713.43,771.31 713.83,771.54 714.22,771.78 714.62,772.01 715.01,772.24 715.41,772.47 715.81,772.71 716.20,772.94 716.60,773.23 716.99,773.62 717.39,774.02 717.79,774.41 718.18,774.80 718.58,775.19 718.98,775.59 719.37,775.98 719.77,776.37 720.16,776.75 720.56,777.14 720.96,777.53 721.35,777.91 721.75,778.30 722.15,778.69 722.54,779.07 722.94,779.46 723.33,779.85 723.73,780.23 724.13,780.62 724.52,780.99 724.92,781.35 725.32,781.71 725.71,782.07 726.11,782.43 726.50,782.79 726.90,783.15 727.30,784.00 727.69,784.87 728.09,785.74 728.48,786.61 728.88,787.82 729.28,789.02 729.67,789.79 730.07,788.59 730.47,787.27 730.86,785.67 731.26,784.06 731.65,782.46 732.05,780.85 732.45,779.15 732.84,777.19 733.24,775.23 733.64,773.27 734.03,771.30 734.43,769.45 734.82,767.96 735.22,766.35 735.62,764.73 736.01,763.12 736.41,761.50 736.81,759.89 737.20,758.08 737.60,756.17 737.99,754.27 738.39,752.36 738.79,750.45 739.18,748.55 739.58,746.61 739.97,744.46 740.37,742.72 740.77,741.28 741.16,739.83 741.56,738.39 741.96,736.94 742.35,735.45 742.75,733.76 743.14,732.08 743.54,730.39 743.94,728.71 744.33,727.02 744.73,725.34 745.13,723.65 745.52,721.79 745.92,719.89 746.31,717.99 746.71,716.09 747.11,714.80 747.50,713.54 747.90,712.28 748.29,711.00 748.69,709.56 749.09,708.10 749.48,706.64 749.88,705.18 750.28,703.77 750.67,702.37 751.07,700.96 751.46,699.54 751.86,697.99 752.26,696.70 752.65,695.42 753.05,694.13 753.45,692.84 753.84,691.56 754.24,690.27 754.63,690.22 755.03,690.20 755.43,690.09 755.82,689.98 756.22,689.87 756.62,689.76 757.01,689.65 757.41,689.54 757.80,689.43 758.20,689.30 758.60,689.03 758.99,688.75 759.39,688.48 759.78,688.68 760.18,689.28 760.58,689.87 760.97,690.46 761.37,691.05 761.77,691.64 762.16,692.23 762.56,692.81 762.95,693.40 763.35,694.02 763.75,694.81 764.14,695.59 764.54,696.37 764.94,697.16 765.33,697.94 765.73,698.73 766.12,699.51 766.52,700.29 766.92,701.08 767.31,701.86 767.71,702.64 768.10,703.43 768.50,704.29 768.90,705.42 769.29,706.54 769.69,707.67 770.09,708.80 770.48,709.93 770.88,711.05 771.27,712.18 771.67,713.31 772.07,714.44 772.46,715.56 772.86,716.69 773.26,717.82 773.65,718.95 774.05,720.09 774.44,721.24 774.84,722.38 775.24,723.52 775.63,724.67 776.03,725.81 776.43,726.95 776.82,728.10 777.22,729.24 777.61,730.39 778.01,731.53 778.41,732.67 778.80,733.82 779.20,734.96 779.59,736.08 779.99,737.19 780.39,738.30 780.78,739.42 781.18,740.53 781.58,741.64 781.97,742.76 782.37,743.87 782.76,744.98 783.16,746.10 783.56,747.21 783.95,748.32 784.35,749.44 784.75,750.41 785.14,751.35 785.54,752.29 785.93,753.23 786.33,754.17 786.73,755.11 787.12,756.04 787.52,756.98 787.91,757.92 788.31,758.86 788.71,759.80 789.10,760.74 789.50,761.68 789.90,762.62 790.29,763.35 790.69,764.07 791.08,764.79 791.48,765.50 791.88,766.22 792.27,766.94 792.67,767.66 793.07,768.38 793.46,769.10 793.86,769.82 794.25,770.54 794.65,771.26 795.05,771.98 795.44,772.70 795.84,773.42 796.24,773.97 796.63,774.42 797.03,774.87 797.42,775.32 797.82,775.77 798.22,776.22 798.61,776.67 799.01,777.12 799.40,777.56 799.80,778.01 800.20,778.46 800.59,778.91 800.99,779.36 801.39,779.81 801.78,780.26 802.18,780.70 802.57,781.15 802.97,781.60 803.37,782.05 803.76,782.47 804.16,782.69 804.56,782.91 804.95,783.13 805.35,783.35 805.74,783.58 806.14,783.80 806.54,784.02 806.93,784.24 807.33,784.46 807.72,784.69 808.12,784.91 808.52,785.13 808.91,785.35 809.31,785.52 809.71,785.52 810.10,785.52 810.50,785.53 810.89,785.53 811.29,785.53 811.69,785.54 812.08,785.54 812.48,785.54 812.88,785.55 813.27,785.55 813.67,785.55 814.06,785.56 814.46,785.56 814.86,785.56 815.25,785.57 815.65,785.60 816.05,785.62 816.44,785.65 816.84,785.67 817.23,785.70 817.63,785.72 818.03,785.75 818.42,785.85 818.82,785.94 819.21,786.04 819.61,786.14 820.01,786.24 820.40,786.33 820.80,786.43 821.20,786.53 821.59,786.63 821.99,786.73 822.38,786.79 822.78,786.84 823.18,786.90 823.57,786.96 823.97,787.02 824.37,787.08 824.76,787.16 825.16,787.32 825.55,787.48 825.95,787.64 826.35,787.79 826.74,787.90 827.14,788.02 827.53,788.17 827.93,788.37 828.33,788.45 828.72,787.56 829.12,788.93 829.52,789.63 829.91,789.36 830.00,789.38" fill="none" stroke="#e05228" stroke-width="2"/><text x="70" y="815" font-size="13">0 m</text><text x="770" y="815" font-size="13">19.18 m</text><text x="350" y="835" font-size="13">Robot traveled distance (meters); deviation axis in cm</text></g></svg>