<svg xmlns="http://www.w3.org/2000/svg" width="1100" height="700" viewBox="0 0 1100 700"><rect width="100%" height="100%" fill="white"/><g font-family="Arial" font-size="13" fill="#263344"><text x="65" y="28" font-size="20">phase-1-canvas-draft — GUI preview vs saved robot simulation</text><text x="65" y="49" fill="#007eaa">Blue: GUI preview (7.02 s)</text><text x="440" y="49" fill="#db6524">Orange: robot simulation (10.10 s)</text><path d="M 147.03983884164478 65 V 635" stroke="#dce2e8"/><text x="147.03983884164478" y="657" text-anchor="middle">4.0</text><path d="M 243.51876783937422 65 V 635" stroke="#dce2e8"/><text x="243.51876783937422" y="657" text-anchor="middle">4.5</text><path d="M 339.99769683710366 65 V 635" stroke="#dce2e8"/><text x="339.99769683710366" y="657" text-anchor="middle">5.0</text><path d="M 436.47662583483316 65 V 635" stroke="#dce2e8"/><text x="436.47662583483316" y="657" text-anchor="middle">5.5</text><path d="M 532.9555548325626 65 V 635" stroke="#dce2e8"/><text x="532.9555548325626" y="657" text-anchor="middle">6.0</text><path d="M 629.434483830292 65 V 635" stroke="#dce2e8"/><text x="629.434483830292" y="657" text-anchor="middle">6.5</text><path d="M 725.9134128280215 65 V 635" stroke="#dce2e8"/><text x="725.9134128280215" y="657" text-anchor="middle">7.0</text><path d="M 822.3923418257509 65 V 635" stroke="#dce2e8"/><text x="822.3923418257509" y="657" text-anchor="middle">7.5</text><path d="M 918.8712708234804 65 V 635" stroke="#dce2e8"/><text x="918.8712708234804" y="657" text-anchor="middle">8.0</text><path d="M 1015.3501998212098 65 V 635" stroke="#dce2e8"/><text x="1015.3501998212098" y="657" text-anchor="middle">8.5</text><path d="M 65 588.3690283462282 H 1035" stroke="#dce2e8"/><text x="53" y="592.3690283462282" text-anchor="end">5.5</text><path d="M 65 491.8900993484988 H 1035" stroke="#dce2e8"/><text x="53" y="495.8900993484988" text-anchor="end">6.0</text><path d="M 65 395.41117035076934 H 1035" stroke="#dce2e8"/><text x="53" y="399.41117035076934" text-anchor="end">6.5</text><path d="M 65 298.9322413530399 H 1035" stroke="#dce2e8"/><text x="53" y="302.9322413530399" text-anchor="end">7.0</text><path d="M 65 202.45331235531046 H 1035" stroke="#dce2e8"/><text x="53" y="206.45331235531046" text-anchor="end">7.5</text><path d="M 65 105.97438335758102 H 1035" stroke="#dce2e8"/><text x="53" y="109.97438335758102" text-anchor="end">8.0</text><polyline points="229.29,220.38 233.15,220.48 237.01,220.58 240.86,220.68 244.72,220.78 248.58,220.87 252.43,220.97 256.29,221.07 260.14,221.17 264.00,221.27 267.86,221.36 271.71,221.46 275.57,221.56 279.43,221.66 283.28,221.76 287.14,221.85 291.00,221.95 294.85,222.05 298.71,222.15 302.57,222.25 306.42,222.34 310.28,222.44 314.14,222.54 317.99,222.64 321.85,222.74 325.71,222.83 329.56,222.93 333.42,223.03 337.28,223.13 341.13,223.23 344.99,223.33 348.85,223.42 352.70,223.52 356.56,223.62 360.42,223.72 364.27,223.82 368.13,223.91 371.99,224.01 375.84,224.11 379.70,224.21 383.56,224.31 387.41,224.40 391.27,224.50 395.13,224.60 398.98,224.70 402.84,224.80 406.70,224.89 410.55,224.99 414.41,225.09 418.27,225.19 422.12,225.29 425.98,225.38 429.84,225.48 433.69,225.58 437.55,225.68 441.41,225.78 445.26,225.87 449.12,225.97 452.98,226.07 456.83,226.17 460.69,226.27 464.55,226.37 468.40,226.46 472.26,226.56 476.12,226.66 479.97,226.76 483.83,226.86 487.69,226.95 491.54,227.05 495.40,227.15 499.26,227.25 503.11,227.35 506.97,227.44 510.83,227.54 514.68,227.64 518.54,227.74 522.40,227.84 526.25,227.93 530.11,228.03 533.96,228.13 537.82,228.23 541.68,228.33 545.53,228.42 549.39,228.52 553.25,228.62 557.10,228.72 560.96,228.82 564.82,228.91 568.67,229.01 572.53,229.11 576.39,229.21 580.24,229.31 584.10,229.41 587.96,229.50 591.81,229.60 595.67,229.70 599.53,229.80 603.38,229.90 607.24,229.99 611.10,230.09 614.95,230.19 618.81,230.29 622.67,230.39 626.52,230.48 630.38,230.58 634.24,230.68 638.09,230.78 641.95,230.88 645.81,230.97 649.07,232.93 652.34,234.89 655.61,236.85 658.88,238.80 662.15,240.76 665.41,242.72 668.68,244.67 671.95,246.63 675.22,248.59 678.49,250.54 681.75,252.50 685.02,254.46 688.29,256.42 691.56,258.37 694.82,260.33 698.09,262.29 701.36,264.24 704.63,266.20 707.90,268.16 711.16,270.11 714.43,272.07 717.70,274.03 720.97,275.99 724.24,277.94 727.50,279.90 730.77,281.86 734.04,283.81 737.31,285.77 740.57,287.73 743.84,289.68 747.11,291.64 750.38,293.60 753.65,295.56 756.91,297.51 760.18,299.47 763.45,301.43 766.72,303.38 769.99,305.34 773.25,307.30 776.52,309.25 779.79,311.21 783.06,313.17 786.32,315.13 789.59,317.08 792.86,319.04 796.13,321.00 799.40,322.95 802.66,324.91 805.93,326.87 809.20,328.82 812.47,330.78 815.74,332.74 819.00,334.70 822.27,336.65 825.54,338.61 828.81,340.57 832.07,342.52 835.34,344.48 838.61,346.44 841.88,348.39 845.15,350.35 848.41,352.31 851.68,354.27 854.95,356.22 858.22,358.18 861.48,360.14 864.75,362.09 868.02,364.05 871.29,366.01 874.56,367.96 877.82,369.92 881.09,371.88 880.91,375.68 880.72,379.49 880.54,383.29 880.35,387.10 880.16,390.90 879.98,394.71 879.79,398.51 879.61,402.32 879.42,406.12 879.24,409.93 879.05,413.73 878.87,417.54 878.68,421.34 878.50,425.15 878.31,428.95 878.13,432.76 877.94,436.56 877.75,440.37 877.57,444.17 877.38,447.98 877.20,451.78 877.01,455.59 876.83,459.39 876.64,463.20 876.46,467.00 876.27,470.81 876.09,474.61 875.90,478.42 875.71,482.22 875.53,486.03 875.34,489.83 875.16,493.64 874.97,497.44 874.79,501.25 874.60,505.05 874.42,508.86 874.23,512.66 874.05,516.47 873.86,520.27 873.67,524.08 873.49,527.88 873.30,531.69 873.12,535.49 872.93,539.30 872.75,543.10 872.56,546.90 872.38,550.71 872.19,554.51 872.01,558.32 869.83,555.17 867.66,552.02 865.48,548.88 863.31,545.73 861.13,542.58 858.96,539.43 856.78,536.29 854.61,533.14 852.43,529.99 850.26,526.84 848.08,523.70 845.91,520.55 843.73,517.40 841.56,514.25 839.38,511.11 837.21,507.96 835.03,504.81 832.86,501.66 830.68,498.52 828.51,495.37 826.33,492.22 824.16,489.07 821.98,485.93 819.81,482.78 817.63,479.63 815.46,476.48 813.28,473.34 811.11,470.19 808.93,467.04 806.76,463.89 804.58,460.75 802.41,457.60 800.23,454.45 798.06,451.30 795.88,448.16 793.71,445.01 791.53,441.86 789.36,438.71 787.18,435.57 785.01,432.42 782.83,429.27 780.66,426.12 778.48,422.98 776.31,419.83 774.13,416.68 771.96,413.53 769.78,410.38 767.61,407.24 765.43,404.09 763.26,400.94 761.08,397.79 758.91,394.65 756.73,391.50 754.56,388.35 752.38,385.20 750.21,382.06 748.03,378.91 745.86,375.76 743.68,372.61 741.51,369.47 739.33,366.32 737.16,363.17 734.98,360.02 732.81,356.88 730.63,353.73 728.46,350.58 726.28,347.43 724.11,344.29 721.93,341.14 719.76,337.99 717.58,334.84 715.41,331.70 713.23,328.55 711.06,325.40 708.88,322.25 706.71,319.11 704.53,315.96 702.36,312.81 700.18,309.66 698.01,306.52 695.83,303.37 693.66,300.22 691.48,297.07 689.31,293.93 687.13,290.78 684.96,287.63 682.78,284.48 680.61,281.34 678.43,278.19 676.26,275.04 674.08,271.89 671.91,268.75 669.73,265.60 667.56,262.45 665.38,259.30 663.21,256.15 661.03,253.01 658.86,249.86 656.68,246.71 654.51,243.56 652.33,240.42 650.16,237.27 647.98,234.12 645.81,230.97 641.95,230.88 638.09,230.78 634.24,230.68 630.38,230.58 626.52,230.48 622.67,230.39 618.81,230.29 614.95,230.19 611.10,230.09 607.24,229.99 603.38,229.90 599.53,229.80 595.67,229.70 591.81,229.60 587.96,229.50 584.10,229.41 580.24,229.31 576.39,229.21 572.53,229.11 568.67,229.01 564.82,228.91 560.96,228.82 557.10,228.72 553.25,228.62 549.39,228.52 545.53,228.42 541.68,228.33 537.82,228.23 533.96,228.13 530.11,228.03 526.25,227.93 522.40,227.84 518.54,227.74 514.68,227.64 510.83,227.54 506.97,227.44 503.11,227.35 499.26,227.25 495.40,227.15 491.54,227.05 487.69,226.95 483.83,226.86 479.97,226.76 476.12,226.66 472.26,226.56 468.40,226.46 464.55,226.37 460.69,226.27 456.83,226.17 452.98,226.07 449.12,225.97 445.26,225.87 441.41,225.78 437.55,225.68 433.69,225.58 429.84,225.48 425.98,225.38 422.12,225.29 418.27,225.19 414.41,225.09 410.55,224.99 406.70,224.89 402.84,224.80 398.98,224.70 395.13,224.60 391.27,224.50 387.41,224.40 383.56,224.31 379.70,224.21 375.84,224.11 371.99,224.01 368.13,223.91 364.27,223.82 360.42,223.72 356.56,223.62 352.70,223.52 348.85,223.42 344.99,223.33 341.13,223.23 337.28,223.13 333.42,223.03 329.56,222.93 325.71,222.83 321.85,222.74 317.99,222.64 314.14,222.54 310.28,222.44 306.42,222.34 302.57,222.25 298.71,222.15 294.85,222.05 291.00,221.95 287.14,221.85 283.28,221.76 279.43,221.66 275.57,221.56 271.71,221.46 267.86,221.36 264.00,221.27 260.14,221.17 256.29,221.07 252.43,220.97 248.58,220.87 244.72,220.78 240.86,220.68 237.01,220.58 233.15,220.48 229.29,220.38 233.15,220.48 237.01,220.58 240.86,220.68 244.72,220.78 248.58,220.87 252.43,220.97 256.29,221.07 260.14,221.17 264.00,221.27 267.86,221.36 271.71,221.46 275.57,221.56 279.43,221.66 283.28,221.76 287.14,221.85 291.00,221.95 294.85,222.05 298.71,222.15 302.57,222.25 306.42,222.34 310.28,222.44 314.14,222.54 317.99,222.64 321.85,222.74 325.71,222.83 329.56,222.93 333.42,223.03 337.28,223.13 341.13,223.23 344.99,223.33 348.85,223.42 352.70,223.52 356.56,223.62 360.42,223.72 364.27,223.82 368.13,223.91 371.99,224.01 375.84,224.11 379.70,224.21 383.56,224.31 387.41,224.40 391.27,224.50 395.13,224.60 398.98,224.70 402.84,224.80 406.70,224.89 410.55,224.99 414.41,225.09 418.27,225.19 422.12,225.29 425.98,225.38 429.84,225.48 433.69,225.58 437.55,225.68 441.41,225.78 445.26,225.87 449.12,225.97 452.98,226.07 456.83,226.17 460.69,226.27 464.55,226.37 468.40,226.46 472.26,226.56 476.12,226.66 479.97,226.76 483.83,226.86 487.69,226.95 491.54,227.05 495.40,227.15 499.26,227.25 503.11,227.35 506.97,227.44 510.83,227.54 514.68,227.64 518.54,227.74 522.40,227.84 526.25,227.93 530.11,228.03 533.96,228.13 537.82,228.23 541.68,228.33 545.53,228.42 549.39,228.52 553.25,228.62 557.10,228.72 560.96,228.82 564.82,228.91 568.67,229.01 572.53,229.11 576.39,229.21 580.24,229.31 584.10,229.41 587.96,229.50 591.81,229.60 595.67,229.70 599.53,229.80 603.38,229.90 607.24,229.99 611.10,230.09 614.95,230.19 618.81,230.29 622.67,230.39 626.52,230.48 630.38,230.58 634.24,230.68 638.09,230.78 641.95,230.88 645.81,230.97 649.07,232.93 652.34,234.89 655.61,236.85 658.88,238.80 662.15,240.76 665.41,242.72 668.68,244.67 671.95,246.63 675.22,248.59 678.49,250.54 681.75,252.50 685.02,254.46 688.29,256.42 691.56,258.37 694.82,260.33 698.09,262.29 701.36,264.24 704.63,266.20 707.90,268.16 711.16,270.11 714.43,272.07 717.70,274.03 720.97,275.99 724.24,277.94 727.50,279.90 730.77,281.86 734.04,283.81 737.31,285.77 740.57,287.73 743.84,289.68 747.11,291.64 750.38,293.60 753.65,295.56 756.91,297.51 760.18,299.47 763.45,301.43 766.72,303.38 769.99,305.34 773.25,307.30 776.52,309.25 779.79,311.21 783.06,313.17 786.32,315.13 789.59,317.08 792.86,319.04 796.13,321.00 799.40,322.95 802.66,324.91 805.93,326.87 809.20,328.82 812.47,330.78 815.74,332.74 819.00,334.70 822.27,336.65 825.54,338.61 828.81,340.57 832.07,342.52 835.34,344.48 838.61,346.44 841.88,348.39 845.15,350.35 848.41,352.31 851.68,354.27 854.95,356.22 858.22,358.18 861.48,360.14 864.75,362.09 868.02,364.05 871.29,366.01 874.56,367.96 877.82,369.92 881.09,371.88 880.91,375.68 880.72,379.49 880.54,383.29 880.35,387.10 880.16,390.90 879.98,394.71 879.79,398.51 879.61,402.32 879.42,406.12 879.24,409.93 879.05,413.73 878.87,417.54 878.68,421.34 878.50,425.15 878.31,428.95 878.13,432.76 877.94,436.56 877.75,440.37 877.57,444.17 877.38,447.98 877.20,451.78 877.01,455.59 876.83,459.39 876.64,463.20 876.46,467.00 876.27,470.81 876.09,474.61 875.90,478.42 875.71,482.22 875.53,486.03 875.34,489.83 875.16,493.64 874.97,497.44 874.79,501.25 874.60,505.05 874.42,508.86 874.23,512.66 874.05,516.47 873.86,520.27 873.67,524.08 873.49,527.88 873.30,531.69 873.12,535.49 872.93,539.30 872.75,543.10 872.56,546.90 872.38,550.71 872.19,554.51 872.01,558.32 869.83,555.17 867.66,552.02 865.48,548.88 863.31,545.73 861.13,542.58 858.96,539.43 856.78,536.29 854.61,533.14 852.43,529.99 850.26,526.84 848.08,523.70 845.91,520.55 843.73,517.40 841.56,514.25 839.38,511.11 837.21,507.96 835.03,504.81 832.86,501.66 830.68,498.52 828.51,495.37 826.33,492.22 824.16,489.07 821.98,485.93 819.81,482.78 817.63,479.63 815.46,476.48 813.28,473.34 811.11,470.19 808.93,467.04 806.76,463.89 804.58,460.75 802.41,457.60 800.23,454.45 798.06,451.30 795.88,448.16 793.71,445.01 791.53,441.86 789.36,438.71 787.18,435.57 785.01,432.42 782.83,429.27 780.66,426.12 778.48,422.98 776.31,419.83 774.13,416.68 771.96,413.53 769.78,410.38 767.61,407.24 765.43,404.09 763.26,400.94 761.08,397.79 758.91,394.65 756.73,391.50 754.56,388.35 752.38,385.20 750.21,382.06 748.03,378.91 745.86,375.76 743.68,372.61 741.51,369.47 739.33,366.32 737.16,363.17 734.98,360.02 732.81,356.88 730.63,353.73 728.46,350.58 726.28,347.43 724.11,344.29 721.93,341.14 719.76,337.99 717.58,334.84 715.41,331.70 713.23,328.55 711.06,325.40 708.88,322.25 706.71,319.11 704.53,315.96 702.36,312.81 700.18,309.66 698.01,306.52 695.83,303.37 693.66,300.22 691.48,297.07 689.31,293.93 687.13,290.78 684.96,287.63 682.78,284.48 680.61,281.34 678.43,278.19 676.26,275.04 674.08,271.89 671.91,268.75 669.73,265.60 667.56,262.45 665.38,259.30 663.21,256.15 661.03,253.01 658.86,249.86 656.68,246.71 654.51,243.56 652.33,240.42 650.16,237.27 647.98,234.12 645.81,230.97 641.95,230.88 638.09,230.78 634.24,230.68 630.38,230.58 626.52,230.48 622.67,230.39 618.81,230.29 614.95,230.19 611.10,230.09 607.24,229.99 603.38,229.90 599.53,229.80 595.67,229.70 591.81,229.60 587.96,229.50 584.10,229.41 580.24,229.31 576.39,229.21 572.53,229.11 568.67,229.01 564.82,228.91 560.96,228.82 557.10,228.72 553.25,228.62 549.39,228.52 545.53,228.42 541.68,228.33 537.82,228.23 533.96,228.13 530.11,228.03 526.25,227.93 522.40,227.84 518.54,227.74 514.68,227.64 510.83,227.54 506.97,227.44 503.11,227.35 499.26,227.25 495.40,227.15 491.54,227.05 487.69,226.95 483.83,226.86 479.97,226.76 476.12,226.66 472.26,226.56 468.40,226.46 464.55,226.37 460.69,226.27 456.83,226.17 452.98,226.07 449.12,225.97 445.26,225.87 441.41,225.78 437.55,225.68 433.69,225.58 429.84,225.48 425.98,225.38 422.12,225.29 418.27,225.19 414.41,225.09 410.55,224.99 406.70,224.89 402.84,224.80 398.98,224.70 395.13,224.60 391.27,224.50 387.41,224.40 383.56,224.31 379.70,224.21 375.84,224.11 371.99,224.01 368.13,223.91 364.27,223.82 360.42,223.72 356.56,223.62 352.70,223.52 348.85,223.42 344.99,223.33 341.13,223.23 337.28,223.13 333.42,223.03 329.56,222.93 325.71,222.83 321.85,222.74 317.99,222.64 314.14,222.54 310.28,222.44 306.42,222.34 302.57,222.25 298.71,222.15 294.85,222.05 291.00,221.95 287.14,221.85 283.28,221.76 279.43,221.66 275.57,221.56 271.71,221.46 267.86,221.36 264.00,221.27 260.14,221.17 256.29,221.07 252.43,220.97 248.58,220.87 244.72,220.78 240.86,220.68 237.01,220.58 233.15,220.48 229.29,220.38" fill="none" stroke="#007eaa" stroke-width="4"/><polyline points="229.29,220.38 229.34,220.38 229.81,220.39 230.58,220.40 231.43,220.42 233.76,220.47 234.47,220.48 237.34,220.55 239.24,220.59 241.88,220.65 244.21,220.70 248.70,220.81 250.79,220.85 255.25,220.96 260.09,221.07 263.52,221.15 268.96,221.28 271.81,221.34 277.76,221.48 282.97,221.61 289.53,221.76 295.22,221.90 299.94,222.01 306.01,222.16 312.29,222.31 317.46,222.43 325.44,222.63 332.30,222.80 339.35,222.97 348.04,223.18 352.48,223.29 358.49,223.44 369.28,223.71 377.17,223.91 386.86,224.15 395.11,224.36 401.81,224.52 410.32,224.74 420.72,225.00 427.77,225.18 436.70,225.41 445.77,225.64 456.82,225.92 464.28,226.11 475.64,226.40 485.23,226.65 492.99,226.85 502.79,227.10 514.70,227.41 522.72,227.62 534.89,227.93 543.09,228.14 553.43,228.41 561.77,228.63 576.52,229.02 585.03,229.24 597.90,229.59 604.39,229.76 615.27,230.05 630.62,230.51 639.40,230.85 652.41,231.64 660.94,232.42 671.31,233.79 681.30,235.72 690.82,238.26 699.83,241.44 709.88,246.11 716.07,249.74 724.55,255.93 728.43,259.32 736.86,267.66 741.40,272.60 748.04,280.04 752.44,284.96 757.97,290.99 763.58,296.86 770.45,303.66 773.96,306.94 781.10,313.29 787.20,318.36 793.42,323.23 801.02,328.84 806.17,332.45 812.68,336.83 819.27,341.09 825.93,345.22 834.01,350.04 838.08,352.40 851.80,360.01 853.18,360.75 860.00,364.57 867.78,369.64 873.79,374.36 880.31,380.62 885.09,386.28 888.46,391.08 892.06,397.35 894.97,403.86 897.12,410.57 898.50,417.42 899.12,424.33 899.07,429.88 898.07,438.17 896.44,445.00 894.22,451.78 891.59,458.55 888.15,466.73 886.38,470.85 883.50,477.81 880.76,484.88 878.23,492.06 875.14,502.29 873.99,506.73 872.08,515.71 870.67,524.80 870.15,529.36 869.18,538.36 868.32,545.66 867.51,551.30 865.67,560.57 864.32,565.46 862.28,571.03 860.34,575.01 856.93,580.02 852.97,583.71 850.86,585.02 847.29,586.38 843.82,586.76 839.95,586.14 836.41,584.62 834.77,583.57 831.13,580.39 828.70,577.52 827.31,575.57 824.66,571.23 822.99,568.05 820.64,562.88 818.45,557.27 817.05,553.31 815.70,549.18 814.05,543.80 812.44,538.20 810.17,529.99 808.83,525.13 807.09,518.90 804.83,511.21 803.62,507.28 801.02,499.28 798.16,491.10 796.63,486.95 792.78,477.11 789.80,469.96 787.28,464.17 783.95,456.87 780.43,449.49 777.48,443.53 773.63,436.02 769.60,428.44 763.65,417.74 760.11,411.57 756.46,405.37 749.84,394.43 746.91,389.72 740.90,380.22 735.75,372.26 730.48,364.23 724.02,354.52 719.63,348.01 714.05,339.80 707.26,329.87 701.51,321.52 698.03,316.48 691.00,306.32 685.10,297.76 677.97,287.37 673.21,280.37 667.25,271.53 662.51,264.37 654.19,251.72 649.33,244.50 642.97,235.57 636.21,226.82 628.99,218.31 619.65,208.50 613.02,202.26 604.35,194.87 593.05,186.47 591.83,185.73 589.52,184.28 586.77,182.65 583.55,180.97 579.90,179.36 575.00,177.69 571.45,176.78 567.14,176.01 564.95,175.75 559.54,175.49 556.22,175.61 551.86,176.06 547.29,176.86 543.52,177.78 536.70,179.96 532.69,181.52 528.60,183.25 521.19,186.56 515.70,189.08 512.30,190.62 505.29,193.73 499.21,196.31 491.62,199.36 485.05,201.82 479.62,203.73 474.06,205.58 466.91,207.79 456.55,210.68 450.44,212.22 442.63,214.02 436.24,215.36 424.78,217.48 419.76,218.30 409.54,219.79 400.85,220.87 391.99,221.81 382.99,222.62 373.84,223.30 364.56,223.84 355.14,224.27 343.67,224.62 333.98,224.79 326.14,224.85 310.25,224.78 306.23,224.72 294.07,224.47 287.94,224.30 277.64,223.95 263.06,223.33 254.64,222.91 246.16,222.45 233.33,221.69 222.66,221.01 212.13,220.29 199.85,219.38 193.87,218.90 184.23,218.12 173.26,217.26 164.67,216.66 158.18,216.30 149.14,216.04 142.27,216.17 136.05,216.71 131.59,217.54 125.95,219.62 122.36,222.02 119.92,224.76 118.45,228.02 117.90,229.42 116.67,231.63 115.35,233.10 114.58,233.77 113.97,234.26 113.34,234.73 113.24,234.81 113.36,234.72 113.77,234.42 114.60,233.78 115.16,233.35 116.80,232.06 117.96,231.15 119.61,229.83 121.49,228.33 124.07,226.30 125.97,224.81 128.02,223.23 131.39,220.70 134.45,218.46 137.77,216.11 140.60,214.17 144.38,211.73 149.33,208.85 153.81,206.56 159.63,204.03 163.77,202.52 169.24,200.89 175.02,199.59 182.33,198.56 187.41,198.22 193.96,198.22 200.69,198.71 208.95,199.92 214.55,201.06 221.68,202.68 230.44,204.71 234.92,205.71 245.63,207.96 250.32,208.88 261.52,210.90 269.72,212.25 276.40,213.26 284.89,214.46 291.80,215.37 302.33,216.64 313.07,217.81 320.34,218.53 331.41,219.55 337.01,220.02 350.26,221.04 357.94,221.58 367.65,222.21 379.46,222.91 387.42,223.34 395.45,223.75 407.62,224.32 415.82,224.68 430.32,225.26 440.80,225.65 449.25,225.95 459.90,226.30 470.63,226.64 483.64,227.03 492.38,227.29 503.41,227.59 512.31,227.83 525.78,228.19 539.38,228.53 548.53,228.75 560.05,229.00 571.65,229.23 583.31,229.42 595.03,229.60 609.14,229.80 616.22,229.92 632.73,230.65 639.79,231.22 653.78,233.02 665.25,235.27 674.25,237.59 689.51,242.82 697.90,246.50 709.96,252.95 717.64,257.86 725.04,263.25 737.34,273.67 744.09,280.07 752.41,288.30 762.42,298.31 767.50,303.31 779.65,314.79 786.82,321.17 797.94,330.40 803.68,334.84 817.51,344.70 825.68,350.01 838.31,357.49 844.78,361.00 860.20,368.69 866.91,371.85 880.32,378.28 893.50,385.09 899.95,388.67 914.46,397.56 922.34,402.98 931.69,410.07 938.74,415.98 948.51,425.21 954.49,431.55 963.81,442.91 967.34,447.87 973.53,457.82 978.54,467.77 981.25,474.34 984.32,484.01 985.70,490.29 986.65,497.87 986.76,505.11 986.04,511.90 984.12,519.37 982.25,523.88 978.67,529.89 975.84,533.36 971.00,537.79 968.36,539.65 961.68,543.12 957.58,544.57 953.25,545.67 946.36,546.72 941.56,547.07 932.79,547.04 927.61,546.70 920.97,546.03 914.16,545.20 907.17,544.34 899.99,543.49 892.65,542.55 885.17,541.37 877.59,539.87 868.42,537.55 863.83,536.18 854.67,532.99 845.62,529.23 839.68,526.42 832.38,522.58 825.22,518.35 816.81,512.72 811.32,508.63 804.59,503.12 799.36,498.38 791.79,490.68 784.63,482.30 779.02,474.79 775.82,470.07 768.82,458.55 765.99,453.42 761.40,444.69 755.11,432.17 751.54,424.89 747.05,415.69 742.50,406.40 737.86,397.04 729.22,380.04 724.25,370.52 719.15,360.96 708.67,341.68 702.19,330.02 695.57,318.31 691.09,310.47 685.39,300.63 680.77,292.74 673.75,280.85 669.01,272.88 661.83,260.88 655.77,250.84 649.49,240.85 642.85,230.99 635.78,221.33 629.79,213.82 620.25,203.05 610.09,193.00 603.00,186.74 593.84,179.45 584.36,172.82 574.63,166.88 566.68,162.65 560.54,159.83 555.87,158.08 550.72,156.54 545.16,155.31 539.27,154.47 534.36,154.10 526.71,154.12 518.80,154.85 514.77,155.50 505.23,157.77 501.12,159.07 492.87,162.22 487.37,164.70 479.16,168.96 472.32,172.92 466.81,176.24 459.80,180.46 449.67,186.34 445.21,188.83 436.01,193.62 428.07,197.42 418.20,201.66 413.13,203.66 402.75,207.41 395.67,209.74 384.81,213.01 375.54,215.53 368.00,217.42 356.63,220.01 349.09,221.52 336.16,223.76 328.97,224.79 318.62,226.02 313.65,226.48 305.73,226.96 298.31,227.02 288.82,226.55 283.89,226.05 278.29,225.28 273.23,224.41 267.90,223.33 264.74,222.64 260.52,221.75 258.57,221.38 254.48,220.76 252.88,220.58 250.46,220.40 247.88,220.32 245.99,220.33 244.30,220.39 242.79,220.47 241.43,220.54 239.97,220.61 239.09,220.65 238.11,220.67 237.21,220.68 236.41,220.67 235.69,220.65 234.94,220.61" fill="none" stroke="#db6524" stroke-width="2.5" stroke-dasharray="7 4"/><circle cx="229.29198496936897" cy="220.38295652024857" r="6" fill="#142b43"/><text x="550" y="688" text-anchor="middle">Field X (metres); field Y increases upward; equal XY scale</text></g></svg>