<svg xmlns="http://www.w3.org/2000/svg" width="1100" height="700" viewBox="0 0 1100 700"><rect width="100%" height="100%" fill="white"/><g font-family="Arial" font-size="13" fill="#263344"><text x="65" y="28" font-size="20">phase-1-canvas-draft — GUI preview vs saved robot simulation</text><text x="65" y="49" fill="#007eaa">Blue: GUI preview (7.02 s)</text><text x="440" y="49" fill="#db6524">Orange: robot simulation (10.24 s)</text><path d="M 158.7644444239221 65 V 635" stroke="#dce2e8"/><text x="158.7644444239221" y="657" text-anchor="middle">4.0</text><path d="M 253.27796044474306 65 V 635" stroke="#dce2e8"/><text x="253.27796044474306" y="657" text-anchor="middle">4.5</text><path d="M 347.791476465564 65 V 635" stroke="#dce2e8"/><text x="347.791476465564" y="657" text-anchor="middle">5.0</text><path d="M 442.304992486385 65 V 635" stroke="#dce2e8"/><text x="442.304992486385" y="657" text-anchor="middle">5.5</text><path d="M 536.8185085072059 65 V 635" stroke="#dce2e8"/><text x="536.8185085072059" y="657" text-anchor="middle">6.0</text><path d="M 631.3320245280269 65 V 635" stroke="#dce2e8"/><text x="631.3320245280269" y="657" text-anchor="middle">6.5</text><path d="M 725.8455405488479 65 V 635" stroke="#dce2e8"/><text x="725.8455405488479" y="657" text-anchor="middle">7.0</text><path d="M 820.3590565696688 65 V 635" stroke="#dce2e8"/><text x="820.3590565696688" y="657" text-anchor="middle">7.5</text><path d="M 914.8725725904899 65 V 635" stroke="#dce2e8"/><text x="914.8725725904899" y="657" text-anchor="middle">8.0</text><path d="M 1009.3860886113108 65 V 635" stroke="#dce2e8"/><text x="1009.3860886113108" y="657" text-anchor="middle">8.5</text><path d="M 65 588.91152375015 H 1035" stroke="#dce2e8"/><text x="53" y="592.91152375015" text-anchor="end">5.5</text><path d="M 65 494.39800772932904 H 1035" stroke="#dce2e8"/><text x="53" y="498.39800772932904" text-anchor="end">6.0</text><path d="M 65 399.88449170850805 H 1035" stroke="#dce2e8"/><text x="53" y="403.88449170850805" text-anchor="end">6.5</text><path d="M 65 305.37097568768706 H 1035" stroke="#dce2e8"/><text x="53" y="309.37097568768706" text-anchor="end">7.0</text><path d="M 65 210.85745966686613 H 1035" stroke="#dce2e8"/><text x="53" y="214.85745966686613" text-anchor="end">7.5</text><polyline points="239.34,228.42 243.12,228.52 246.90,228.61 250.68,228.71 254.45,228.81 258.23,228.90 262.01,229.00 265.79,229.09 269.57,229.19 273.34,229.29 277.12,229.38 280.90,229.48 284.68,229.57 288.46,229.67 292.23,229.77 296.01,229.86 299.79,229.96 303.57,230.06 307.35,230.15 311.12,230.25 314.90,230.34 318.68,230.44 322.46,230.54 326.24,230.63 330.01,230.73 333.79,230.82 337.57,230.92 341.35,231.02 345.13,231.11 348.90,231.21 352.68,231.30 356.46,231.40 360.24,231.50 364.02,231.59 367.79,231.69 371.57,231.78 375.35,231.88 379.13,231.98 382.91,232.07 386.69,232.17 390.46,232.26 394.24,232.36 398.02,232.46 401.80,232.55 405.58,232.65 409.35,232.75 413.13,232.84 416.91,232.94 420.69,233.03 424.47,233.13 428.24,233.23 432.02,233.32 435.80,233.42 439.58,233.51 443.36,233.61 447.13,233.71 450.91,233.80 454.69,233.90 458.47,233.99 462.25,234.09 466.02,234.19 469.80,234.28 473.58,234.38 477.36,234.47 481.14,234.57 484.91,234.67 488.69,234.76 492.47,234.86 496.25,234.95 500.03,235.05 503.80,235.15 507.58,235.24 511.36,235.34 515.14,235.44 518.92,235.53 522.70,235.63 526.47,235.72 530.25,235.82 534.03,235.92 537.81,236.01 541.59,236.11 545.36,236.20 549.14,236.30 552.92,236.40 556.70,236.49 560.48,236.59 564.25,236.68 568.03,236.78 571.81,236.88 575.59,236.97 579.37,237.07 583.14,237.16 586.92,237.26 590.70,237.36 594.48,237.45 598.26,237.55 602.03,237.64 605.81,237.74 609.59,237.84 613.37,237.93 617.15,238.03 620.92,238.13 624.70,238.22 628.48,238.32 632.26,238.41 636.04,238.51 639.81,238.61 643.59,238.70 647.37,238.80 650.57,240.71 653.77,242.63 656.97,244.55 660.18,246.47 663.38,248.38 666.58,250.30 669.78,252.22 672.98,254.13 676.18,256.05 679.38,257.97 682.59,259.89 685.79,261.80 688.99,263.72 692.19,265.64 695.39,267.55 698.59,269.47 701.79,271.39 704.99,273.31 708.20,275.22 711.40,277.14 714.60,279.06 717.80,280.97 721.00,282.89 724.20,284.81 727.40,286.73 730.60,288.64 733.81,290.56 737.01,292.48 740.21,294.39 743.41,296.31 746.61,298.23 749.81,300.15 753.01,302.06 756.21,303.98 759.42,305.90 762.62,307.81 765.82,309.73 769.02,311.65 772.22,313.57 775.42,315.48 778.62,317.40 781.82,319.32 785.03,321.23 788.23,323.15 791.43,325.07 794.63,326.99 797.83,328.90 801.03,330.82 804.23,332.74 807.43,334.65 810.64,336.57 813.84,338.49 817.04,340.41 820.24,342.32 823.44,344.24 826.64,346.16 829.84,348.07 833.05,349.99 836.25,351.91 839.45,353.83 842.65,355.74 845.85,357.66 849.05,359.58 852.25,361.49 855.45,363.41 858.66,365.33 861.86,367.25 865.06,369.16 868.26,371.08 871.46,373.00 874.66,374.91 877.86,376.83 877.68,380.56 877.50,384.29 877.32,388.01 877.14,391.74 876.95,395.47 876.77,399.20 876.59,402.92 876.41,406.65 876.23,410.38 876.05,414.10 875.86,417.83 875.68,421.56 875.50,425.29 875.32,429.01 875.14,432.74 874.96,436.47 874.77,440.20 874.59,443.92 874.41,447.65 874.23,451.38 874.05,455.11 873.87,458.83 873.68,462.56 873.50,466.29 873.32,470.02 873.14,473.74 872.96,477.47 872.78,481.20 872.59,484.93 872.41,488.65 872.23,492.38 872.05,496.11 871.87,499.84 871.69,503.56 871.50,507.29 871.32,511.02 871.14,514.75 870.96,518.47 870.78,522.20 870.60,525.93 870.41,529.65 870.23,533.38 870.05,537.11 869.87,540.84 869.69,544.56 869.51,548.29 869.33,552.02 869.14,555.75 868.96,559.47 866.83,556.39 864.70,553.31 862.57,550.22 860.44,547.14 858.31,544.06 856.18,540.97 854.05,537.89 851.92,534.81 849.79,531.72 847.65,528.64 845.52,525.56 843.39,522.47 841.26,519.39 839.13,516.31 837.00,513.22 834.87,510.14 832.74,507.06 830.61,503.97 828.48,500.89 826.35,497.81 824.22,494.72 822.09,491.64 819.96,488.56 817.83,485.47 815.69,482.39 813.56,479.31 811.43,476.22 809.30,473.14 807.17,470.05 805.04,466.97 802.91,463.89 800.78,460.80 798.65,457.72 796.52,454.64 794.39,451.55 792.26,448.47 790.13,445.39 788.00,442.30 785.87,439.22 783.73,436.14 781.60,433.05 779.47,429.97 777.34,426.89 775.21,423.80 773.08,420.72 770.95,417.64 768.82,414.55 766.69,411.47 764.56,408.39 762.43,405.30 760.30,402.22 758.17,399.14 756.04,396.05 753.90,392.97 751.77,389.89 749.64,386.80 747.51,383.72 745.38,380.64 743.25,377.55 741.12,374.47 738.99,371.39 736.86,368.30 734.73,365.22 732.60,362.13 730.47,359.05 728.34,355.97 726.21,352.88 724.08,349.80 721.94,346.72 719.81,343.63 717.68,340.55 715.55,337.47 713.42,334.38 711.29,331.30 709.16,328.22 707.03,325.13 704.90,322.05 702.77,318.97 700.64,315.88 698.51,312.80 696.38,309.72 694.25,306.63 692.12,303.55 689.98,300.47 687.85,297.38 685.72,294.30 683.59,291.22 681.46,288.13 679.33,285.05 677.20,281.97 675.07,278.88 672.94,275.80 670.81,272.72 668.68,269.63 666.55,266.55 664.42,263.46 662.29,260.38 660.16,257.30 658.02,254.21 655.89,251.13 653.76,248.05 651.63,244.96 649.50,241.88 647.37,238.80 643.59,238.70 639.81,238.61 636.04,238.51 632.26,238.41 628.48,238.32 624.70,238.22 620.92,238.13 617.15,238.03 613.37,237.93 609.59,237.84 605.81,237.74 602.03,237.64 598.26,237.55 594.48,237.45 590.70,237.36 586.92,237.26 583.14,237.16 579.37,237.07 575.59,236.97 571.81,236.88 568.03,236.78 564.25,236.68 560.48,236.59 556.70,236.49 552.92,236.40 549.14,236.30 545.36,236.20 541.59,236.11 537.81,236.01 534.03,235.92 530.25,235.82 526.47,235.72 522.70,235.63 518.92,235.53 515.14,235.44 511.36,235.34 507.58,235.24 503.80,235.15 500.03,235.05 496.25,234.95 492.47,234.86 488.69,234.76 484.91,234.67 481.14,234.57 477.36,234.47 473.58,234.38 469.80,234.28 466.02,234.19 462.25,234.09 458.47,233.99 454.69,233.90 450.91,233.80 447.13,233.71 443.36,233.61 439.58,233.51 435.80,233.42 432.02,233.32 428.24,233.23 424.47,233.13 420.69,233.03 416.91,232.94 413.13,232.84 409.35,232.75 405.58,232.65 401.80,232.55 398.02,232.46 394.24,232.36 390.46,232.26 386.69,232.17 382.91,232.07 379.13,231.98 375.35,231.88 371.57,231.78 367.79,231.69 364.02,231.59 360.24,231.50 356.46,231.40 352.68,231.30 348.90,231.21 345.13,231.11 341.35,231.02 337.57,230.92 333.79,230.82 330.01,230.73 326.24,230.63 322.46,230.54 318.68,230.44 314.90,230.34 311.12,230.25 307.35,230.15 303.57,230.06 299.79,229.96 296.01,229.86 292.23,229.77 288.46,229.67 284.68,229.57 280.90,229.48 277.12,229.38 273.34,229.29 269.57,229.19 265.79,229.09 262.01,229.00 258.23,228.90 254.45,228.81 250.68,228.71 246.90,228.61 243.12,228.52 239.34,228.42 243.12,228.52 246.90,228.61 250.68,228.71 254.45,228.81 258.23,228.90 262.01,229.00 265.79,229.09 269.57,229.19 273.34,229.29 277.12,229.38 280.90,229.48 284.68,229.57 288.46,229.67 292.23,229.77 296.01,229.86 299.79,229.96 303.57,230.06 307.35,230.15 311.12,230.25 314.90,230.34 318.68,230.44 322.46,230.54 326.24,230.63 330.01,230.73 333.79,230.82 337.57,230.92 341.35,231.02 345.13,231.11 348.90,231.21 352.68,231.30 356.46,231.40 360.24,231.50 364.02,231.59 367.79,231.69 371.57,231.78 375.35,231.88 379.13,231.98 382.91,232.07 386.69,232.17 390.46,232.26 394.24,232.36 398.02,232.46 401.80,232.55 405.58,232.65 409.35,232.75 413.13,232.84 416.91,232.94 420.69,233.03 424.47,233.13 428.24,233.23 432.02,233.32 435.80,233.42 439.58,233.51 443.36,233.61 447.13,233.71 450.91,233.80 454.69,233.90 458.47,233.99 462.25,234.09 466.02,234.19 469.80,234.28 473.58,234.38 477.36,234.47 481.14,234.57 484.91,234.67 488.69,234.76 492.47,234.86 496.25,234.95 500.03,235.05 503.80,235.15 507.58,235.24 511.36,235.34 515.14,235.44 518.92,235.53 522.70,235.63 526.47,235.72 530.25,235.82 534.03,235.92 537.81,236.01 541.59,236.11 545.36,236.20 549.14,236.30 552.92,236.40 556.70,236.49 560.48,236.59 564.25,236.68 568.03,236.78 571.81,236.88 575.59,236.97 579.37,237.07 583.14,237.16 586.92,237.26 590.70,237.36 594.48,237.45 598.26,237.55 602.03,237.64 605.81,237.74 609.59,237.84 613.37,237.93 617.15,238.03 620.92,238.13 624.70,238.22 628.48,238.32 632.26,238.41 636.04,238.51 639.81,238.61 643.59,238.70 647.37,238.80 650.57,240.71 653.77,242.63 656.97,244.55 660.18,246.47 663.38,248.38 666.58,250.30 669.78,252.22 672.98,254.13 676.18,256.05 679.38,257.97 682.59,259.89 685.79,261.80 688.99,263.72 692.19,265.64 695.39,267.55 698.59,269.47 701.79,271.39 704.99,273.31 708.20,275.22 711.40,277.14 714.60,279.06 717.80,280.97 721.00,282.89 724.20,284.81 727.40,286.73 730.60,288.64 733.81,290.56 737.01,292.48 740.21,294.39 743.41,296.31 746.61,298.23 749.81,300.15 753.01,302.06 756.21,303.98 759.42,305.90 762.62,307.81 765.82,309.73 769.02,311.65 772.22,313.57 775.42,315.48 778.62,317.40 781.82,319.32 785.03,321.23 788.23,323.15 791.43,325.07 794.63,326.99 797.83,328.90 801.03,330.82 804.23,332.74 807.43,334.65 810.64,336.57 813.84,338.49 817.04,340.41 820.24,342.32 823.44,344.24 826.64,346.16 829.84,348.07 833.05,349.99 836.25,351.91 839.45,353.83 842.65,355.74 845.85,357.66 849.05,359.58 852.25,361.49 855.45,363.41 858.66,365.33 861.86,367.25 865.06,369.16 868.26,371.08 871.46,373.00 874.66,374.91 877.86,376.83 877.68,380.56 877.50,384.29 877.32,388.01 877.14,391.74 876.95,395.47 876.77,399.20 876.59,402.92 876.41,406.65 876.23,410.38 876.05,414.10 875.86,417.83 875.68,421.56 875.50,425.29 875.32,429.01 875.14,432.74 874.96,436.47 874.77,440.20 874.59,443.92 874.41,447.65 874.23,451.38 874.05,455.11 873.87,458.83 873.68,462.56 873.50,466.29 873.32,470.02 873.14,473.74 872.96,477.47 872.78,481.20 872.59,484.93 872.41,488.65 872.23,492.38 872.05,496.11 871.87,499.84 871.69,503.56 871.50,507.29 871.32,511.02 871.14,514.75 870.96,518.47 870.78,522.20 870.60,525.93 870.41,529.65 870.23,533.38 870.05,537.11 869.87,540.84 869.69,544.56 869.51,548.29 869.33,552.02 869.14,555.75 868.96,559.47 866.83,556.39 864.70,553.31 862.57,550.22 860.44,547.14 858.31,544.06 856.18,540.97 854.05,537.89 851.92,534.81 849.79,531.72 847.65,528.64 845.52,525.56 843.39,522.47 841.26,519.39 839.13,516.31 837.00,513.22 834.87,510.14 832.74,507.06 830.61,503.97 828.48,500.89 826.35,497.81 824.22,494.72 822.09,491.64 819.96,488.56 817.83,485.47 815.69,482.39 813.56,479.31 811.43,476.22 809.30,473.14 807.17,470.05 805.04,466.97 802.91,463.89 800.78,460.80 798.65,457.72 796.52,454.64 794.39,451.55 792.26,448.47 790.13,445.39 788.00,442.30 785.87,439.22 783.73,436.14 781.60,433.05 779.47,429.97 777.34,426.89 775.21,423.80 773.08,420.72 770.95,417.64 768.82,414.55 766.69,411.47 764.56,408.39 762.43,405.30 760.30,402.22 758.17,399.14 756.04,396.05 753.90,392.97 751.77,389.89 749.64,386.80 747.51,383.72 745.38,380.64 743.25,377.55 741.12,374.47 738.99,371.39 736.86,368.30 734.73,365.22 732.60,362.13 730.47,359.05 728.34,355.97 726.21,352.88 724.08,349.80 721.94,346.72 719.81,343.63 717.68,340.55 715.55,337.47 713.42,334.38 711.29,331.30 709.16,328.22 707.03,325.13 704.90,322.05 702.77,318.97 700.64,315.88 698.51,312.80 696.38,309.72 694.25,306.63 692.12,303.55 689.98,300.47 687.85,297.38 685.72,294.30 683.59,291.22 681.46,288.13 679.33,285.05 677.20,281.97 675.07,278.88 672.94,275.80 670.81,272.72 668.68,269.63 666.55,266.55 664.42,263.46 662.29,260.38 660.16,257.30 658.02,254.21 655.89,251.13 653.76,248.05 651.63,244.96 649.50,241.88 647.37,238.80 643.59,238.70 639.81,238.61 636.04,238.51 632.26,238.41 628.48,238.32 624.70,238.22 620.92,238.13 617.15,238.03 613.37,237.93 609.59,237.84 605.81,237.74 602.03,237.64 598.26,237.55 594.48,237.45 590.70,237.36 586.92,237.26 583.14,237.16 579.37,237.07 575.59,236.97 571.81,236.88 568.03,236.78 564.25,236.68 560.48,236.59 556.70,236.49 552.92,236.40 549.14,236.30 545.36,236.20 541.59,236.11 537.81,236.01 534.03,235.92 530.25,235.82 526.47,235.72 522.70,235.63 518.92,235.53 515.14,235.44 511.36,235.34 507.58,235.24 503.80,235.15 500.03,235.05 496.25,234.95 492.47,234.86 488.69,234.76 484.91,234.67 481.14,234.57 477.36,234.47 473.58,234.38 469.80,234.28 466.02,234.19 462.25,234.09 458.47,233.99 454.69,233.90 450.91,233.80 447.13,233.71 443.36,233.61 439.58,233.51 435.80,233.42 432.02,233.32 428.24,233.23 424.47,233.13 420.69,233.03 416.91,232.94 413.13,232.84 409.35,232.75 405.58,232.65 401.80,232.55 398.02,232.46 394.24,232.36 390.46,232.26 386.69,232.17 382.91,232.07 379.13,231.98 375.35,231.88 371.57,231.78 367.79,231.69 364.02,231.59 360.24,231.50 356.46,231.40 352.68,231.30 348.90,231.21 345.13,231.11 341.35,231.02 337.57,230.92 333.79,230.82 330.01,230.73 326.24,230.63 322.46,230.54 318.68,230.44 314.90,230.34 311.12,230.25 307.35,230.15 303.57,230.06 299.79,229.96 296.01,229.86 292.23,229.77 288.46,229.67 284.68,229.57 280.90,229.48 277.12,229.38 273.34,229.29 269.57,229.19 265.79,229.09 262.01,229.00 258.23,228.90 254.45,228.81 250.68,228.71 246.90,228.61 243.12,228.52 239.34,228.42" fill="none" stroke="#007eaa" stroke-width="4"/><polyline points="239.34,228.42 239.39,228.42 239.74,228.43 240.42,228.44 241.68,228.46 242.77,228.49 244.78,228.53 246.79,228.57 248.60,228.61 251.68,228.68 253.95,228.73 258.35,228.84 260.40,228.88 264.02,228.97 268.70,229.07 272.87,229.17 276.39,229.25 280.99,229.36 286.82,229.50 290.89,229.60 297.26,229.75 301.67,229.85 307.38,229.99 314.50,230.16 320.65,230.31 325.71,230.43 333.53,230.62 340.26,230.79 345.76,230.92 354.23,231.13 360.02,231.27 367.40,231.45 376.47,231.68 382.65,231.83 392.10,232.07 400.15,232.27 408.34,232.48 415.00,232.65 423.45,232.86 432.04,233.08 440.76,233.30 449.62,233.52 460.41,233.80 469.55,234.03 478.80,234.27 486.29,234.46 495.76,234.71 507.26,235.00 515.03,235.20 524.82,235.46 534.73,235.71 546.75,236.03 554.84,236.24 567.10,236.56 577.42,236.83 585.74,237.05 596.22,237.33 606.79,237.61 617.45,237.89 628.18,238.20 638.92,238.60 651.64,239.35 659.97,240.08 670.13,241.38 681.83,243.63 689.28,245.59 698.16,248.59 706.49,252.23 714.21,256.52 722.62,262.46 728.95,267.98 734.83,273.81 740.45,279.80 744.83,284.62 751.36,291.80 755.72,296.50 761.24,302.24 767.99,308.89 772.59,313.17 779.63,319.35 784.41,323.32 791.73,329.04 797.94,333.63 802.98,337.18 810.64,342.33 817.10,346.49 823.64,350.53 828.91,353.69 835.55,357.57 842.24,361.35 848.95,365.09 856.84,369.79 861.90,373.17 869.04,378.70 874.47,383.77 879.35,389.24 883.62,395.07 886.56,399.97 889.60,406.33 891.91,412.90 893.71,420.98 894.39,427.79 894.41,433.27 893.79,440.10 892.47,446.89 890.08,454.97 888.11,460.33 884.89,468.42 882.10,475.22 879.37,482.11 877.29,487.70 874.43,496.20 872.33,503.40 870.87,509.22 869.06,518.05 868.12,523.99 867.03,532.92 866.26,540.28 865.44,547.46 864.67,553.01 863.45,559.61 861.88,565.73 859.93,571.30 857.57,576.21 854.80,580.37 850.98,584.20 847.53,586.33 844.72,587.33 841.30,587.74 837.45,587.19 835.09,586.30 832.33,584.69 829.23,582.07 826.81,579.35 824.97,576.85 822.78,573.36 820.33,568.69 818.80,565.31 816.63,559.88 814.91,555.05 813.59,551.01 811.67,544.66 810.11,539.12 808.86,534.53 806.92,527.43 805.23,521.32 803.43,515.05 801.48,508.64 799.37,502.09 797.08,495.41 794.60,488.62 791.93,481.73 789.07,474.74 786.64,469.08 782.77,460.50 779.34,453.26 775.73,445.95 772.70,440.05 768.76,432.63 764.64,425.14 760.36,417.60 755.92,410.01 751.32,402.36 745.62,393.11 741.70,386.91 735.68,377.54 731.57,371.25 725.27,361.76 720.98,355.38 715.53,347.36 708.89,337.64 703.27,329.48 698.73,322.90 691.86,312.93 687.23,306.23 681.43,297.78 674.43,287.51 669.76,280.59 662.79,270.08 656.97,261.22 650.97,252.41 645.93,245.46 637.88,235.28 632.14,228.70 624.51,220.74 614.70,211.69 607.80,206.02 596.96,198.16 592.35,195.24 589.88,193.83 586.39,191.92 582.99,190.28 579.96,189.02 574.07,187.13 571.33,186.49 566.50,185.68 562.47,185.32 559.07,185.23 554.60,185.40 549.91,185.93 545.04,186.84 540.02,188.14 533.84,190.21 528.58,192.31 524.27,194.17 517.62,197.12 513.05,199.17 505.96,202.29 501.07,204.37 493.48,207.44 488.25,209.44 481.51,211.87 474.56,214.19 465.93,216.83 458.52,218.88 450.90,220.80 443.10,222.57 436.72,223.89 428.58,225.39 416.90,227.25 411.80,227.95 401.42,229.21 392.61,230.10 383.65,230.85 376.39,231.35 367.19,231.87 355.99,232.33 348.42,232.53 336.93,232.72 329.18,232.75 319.40,232.71 307.51,232.53 299.51,232.34 287.38,231.96 277.18,231.56 268.94,231.17 256.48,230.50 248.11,229.98 235.45,229.13 227.01,228.52 216.56,227.72 204.34,226.72 194.48,225.88 185.00,225.09 175.96,224.39 169.08,223.93 160.96,223.55 151.99,223.46 146.48,223.68 139.02,224.57 133.62,225.94 129.87,227.42 125.88,229.49 122.10,231.93 119.73,233.68 117.74,235.18 116.37,236.24 114.95,237.39 113.66,238.47 112.90,239.11 112.44,239.51 112.26,239.67 112.31,239.62 112.63,239.34 113.20,238.83 113.83,238.26 115.05,237.15 116.05,236.25 117.50,234.94 119.17,233.43 121.48,231.37 123.19,229.87 126.03,227.41 128.64,225.21 131.48,222.87 134.59,220.46 137.28,218.50 141.69,215.60 144.90,213.73 149.21,211.51 154.84,209.11 159.91,207.42 165.31,206.05 169.84,205.22 176.97,204.50 183.16,204.42 188.26,204.71 194.76,205.52 202.72,207.14 208.09,208.58 214.90,210.64 221.86,212.83 230.43,215.42 236.32,217.05 243.87,218.90 251.63,220.53 259.58,221.95 267.72,223.19 277.70,224.50 286.19,225.46 293.09,226.16 303.60,227.11 312.51,227.82 321.56,228.47 330.73,229.07 340.02,229.63 347.54,230.04 358.96,230.62 368.60,231.07 376.39,231.41 386.23,231.81 396.17,232.19 408.23,232.62 418.40,232.96 428.66,233.29 439.01,233.61 447.36,233.86 457.87,234.16 468.48,234.46 481.31,234.81 489.95,235.04 500.84,235.32 511.84,235.60 525.18,235.94 536.41,236.22 547.72,236.50 559.11,236.78 570.55,237.06 579.73,237.28 593.56,237.62 602.81,237.84 614.40,238.11 626.01,238.45 637.66,239.03 651.56,240.29 660.74,241.58 672.05,243.77 685.27,247.36 695.93,251.17 706.21,255.71 714.13,259.88 723.63,265.78 732.66,272.43 742.93,281.29 751.11,289.24 757.52,295.83 767.14,305.86 775.27,314.22 783.63,322.46 790.53,328.90 801.24,338.22 808.67,344.16 820.20,352.59 830.19,359.16 840.51,365.27 849.00,369.80 862.05,376.09 870.85,380.09 881.85,385.17 894.82,391.59 905.33,397.28 915.47,403.31 923.25,408.38 934.27,416.39 941.15,421.99 949.17,429.22 957.88,438.18 964.37,445.83 969.02,452.01 975.09,461.33 979.29,469.07 982.06,475.20 985.21,484.22 986.64,490.07 987.74,498.50 987.74,505.12 987.15,510.10 985.69,515.85 982.97,521.96 980.00,526.33 977.25,529.36 973.41,532.58 968.29,535.63 963.66,537.53 959.71,538.68 953.39,539.86 947.79,540.37 943.14,540.49 937.13,540.33 929.68,539.78 924.56,539.26 918.00,538.54 911.25,537.86 904.31,537.34 897.18,537.09 888.38,537.13 880.87,537.27 873.21,537.30 865.39,537.11 859.06,536.73 849.47,535.72 843.04,534.73 835.04,533.15 825.52,530.75 819.26,528.86 809.96,525.54 803.84,522.99 794.77,518.63 787.34,514.47 781.51,510.78 774.41,505.70 766.25,498.90 759.81,492.62 753.75,485.82 748.10,478.53 743.90,472.36 739.08,464.24 733.98,453.94 730.33,444.94 727.18,435.61 724.47,426.02 722.48,418.21 716.55,392.23 714.21,382.06 711.55,371.87 708.54,361.68 704.47,349.47 701.49,341.35 696.62,329.21 692.21,319.15 687.48,309.14 683.50,301.17 677.20,289.28 672.80,281.39 667.09,271.57 661.19,261.79 655.08,252.05 648.69,242.41 641.93,232.94 633.21,221.89 625.43,213.06 618.90,206.31 610.38,198.32 599.68,189.48 592.28,184.09 580.85,176.81 571.07,171.51 567.32,169.78 563.94,168.42 559.29,166.87 553.16,165.34 548.80,164.59 543.15,164.00 537.43,163.84 530.29,164.25 524.14,165.11 519.14,166.15 511.54,168.28 505.15,170.59 498.75,173.36 492.35,176.57 485.94,180.14 480.78,183.18 474.22,187.09 467.51,191.04 459.19,195.75 452.02,199.57 444.61,203.24 438.50,206.05 429.04,210.02 422.55,212.48 414.23,215.36 405.69,218.01 396.96,220.45 388.05,222.71 377.15,225.21 367.95,227.07 360.63,228.43 349.82,230.18 341.06,231.36 332.62,232.30 326.14,232.88 318.44,233.35 311.24,233.50 303.31,233.32 297.33,232.94 291.90,232.41 287.94,231.93 283.39,231.31 279.26,230.72 274.73,230.11 272.00,229.75 268.31,229.32 265.51,229.05 263.00,228.86 260.73,228.74 258.67,228.67 256.80,228.63 255.11,228.62 253.57,228.63 252.18,228.64 251.16,228.65 249.77,228.66 248.73,228.66 247.80,228.65 246.98,228.64 246.24,228.63 245.57,228.61 244.98,228.60" fill="none" stroke="#db6524" stroke-width="2.5" stroke-dasharray="7 4"/><circle cx="239.34099737231276" cy="228.42185148417553" r="6" fill="#142b43"/><text x="550" y="688" text-anchor="middle">Field X (metres); field Y increases upward; equal XY scale</text></g></svg>