<svg xmlns="http://www.w3.org/2000/svg" width="1100" height="700" viewBox="0 0 1100 700"><rect width="100%" height="100%" fill="white"/><g font-family="Arial" font-size="13" fill="#263344"><text x="65" y="28" font-size="20">phase-1-canvas-draft — GUI preview vs saved robot simulation</text><text x="65" y="49" fill="#007eaa">Blue: GUI preview (7.02 s)</text><text x="440" y="49" fill="#db6524">Orange: robot simulation (10.23 s)</text><path d="M 149.77268650397127 65 V 635" stroke="#dce2e8"/><text x="149.77268650397127" y="657" text-anchor="middle">4.0</text><path d="M 246.95152943206782 65 V 635" stroke="#dce2e8"/><text x="246.95152943206782" y="657" text-anchor="middle">4.5</text><path d="M 344.1303723601644 65 V 635" stroke="#dce2e8"/><text x="344.1303723601644" y="657" text-anchor="middle">5.0</text><path d="M 441.309215288261 65 V 635" stroke="#dce2e8"/><text x="441.309215288261" y="657" text-anchor="middle">5.5</text><path d="M 538.4880582163576 65 V 635" stroke="#dce2e8"/><text x="538.4880582163576" y="657" text-anchor="middle">6.0</text><path d="M 635.6669011444541 65 V 635" stroke="#dce2e8"/><text x="635.6669011444541" y="657" text-anchor="middle">6.5</text><path d="M 732.8457440725507 65 V 635" stroke="#dce2e8"/><text x="732.8457440725507" y="657" text-anchor="middle">7.0</text><path d="M 830.0245870006472 65 V 635" stroke="#dce2e8"/><text x="830.0245870006472" y="657" text-anchor="middle">7.5</text><path d="M 927.203429928744 65 V 635" stroke="#dce2e8"/><text x="927.203429928744" y="657" text-anchor="middle">8.0</text><path d="M 1024.3822728568405 65 V 635" stroke="#dce2e8"/><text x="1024.3822728568405" y="657" text-anchor="middle">8.5</text><path d="M 65 585.8543235349506 H 1035" stroke="#dce2e8"/><text x="53" y="589.8543235349506" text-anchor="end">5.5</text><path d="M 65 488.6754806068541 H 1035" stroke="#dce2e8"/><text x="53" y="492.6754806068541" text-anchor="end">6.0</text><path d="M 65 391.49663767875745 H 1035" stroke="#dce2e8"/><text x="53" y="395.49663767875745" text-anchor="end">6.5</text><path d="M 65 294.31779475066094 H 1035" stroke="#dce2e8"/><text x="53" y="298.31779475066094" text-anchor="end">7.0</text><path d="M 65 197.13895182256437 H 1035" stroke="#dce2e8"/><text x="53" y="201.13895182256437" text-anchor="end">7.5</text><polyline points="232.62,215.20 236.51,215.30 240.39,215.40 244.28,215.50 248.16,215.59 252.04,215.69 255.93,215.79 259.81,215.89 263.70,215.99 267.58,216.09 271.47,216.19 275.35,216.29 279.24,216.38 283.12,216.48 287.01,216.58 290.89,216.68 294.78,216.78 298.66,216.88 302.54,216.98 306.43,217.08 310.31,217.17 314.20,217.27 318.08,217.37 321.97,217.47 325.85,217.57 329.74,217.67 333.62,217.77 337.51,217.87 341.39,217.96 345.27,218.06 349.16,218.16 353.04,218.26 356.93,218.36 360.81,218.46 364.70,218.56 368.58,218.66 372.47,218.75 376.35,218.85 380.24,218.95 384.12,219.05 388.01,219.15 391.89,219.25 395.77,219.35 399.66,219.45 403.54,219.55 407.43,219.64 411.31,219.74 415.20,219.84 419.08,219.94 422.97,220.04 426.85,220.14 430.74,220.24 434.62,220.34 438.51,220.43 442.39,220.53 446.27,220.63 450.16,220.73 454.04,220.83 457.93,220.93 461.81,221.03 465.70,221.13 469.58,221.22 473.47,221.32 477.35,221.42 481.24,221.52 485.12,221.62 489.01,221.72 492.89,221.82 496.77,221.92 500.66,222.01 504.54,222.11 508.43,222.21 512.31,222.31 516.20,222.41 520.08,222.51 523.97,222.61 527.85,222.71 531.74,222.80 535.62,222.90 539.50,223.00 543.39,223.10 547.27,223.20 551.16,223.30 555.04,223.40 558.93,223.50 562.81,223.60 566.70,223.69 570.58,223.79 574.47,223.89 578.35,223.99 582.24,224.09 586.12,224.19 590.00,224.29 593.89,224.39 597.77,224.48 601.66,224.58 605.54,224.68 609.43,224.78 613.31,224.88 617.20,224.98 621.08,225.08 624.97,225.18 628.85,225.27 632.74,225.37 636.62,225.47 640.50,225.57 644.39,225.67 648.27,225.77 652.16,225.87 655.45,227.84 658.74,229.81 662.03,231.78 665.32,233.75 668.62,235.72 671.91,237.69 675.20,239.67 678.49,241.64 681.78,243.61 685.07,245.58 688.37,247.55 691.66,249.52 694.95,251.49 698.24,253.46 701.53,255.43 704.82,257.41 708.11,259.38 711.41,261.35 714.70,263.32 717.99,265.29 721.28,267.26 724.57,269.23 727.86,271.20 731.16,273.18 734.45,275.15 737.74,277.12 741.03,279.09 744.32,281.06 747.61,283.03 750.90,285.00 754.20,286.97 757.49,288.95 760.78,290.92 764.07,292.89 767.36,294.86 770.65,296.83 773.95,298.80 777.24,300.77 780.53,302.74 783.82,304.71 787.11,306.69 790.40,308.66 793.70,310.63 796.99,312.60 800.28,314.57 803.57,316.54 806.86,318.51 810.15,320.48 813.44,322.46 816.74,324.43 820.03,326.40 823.32,328.37 826.61,330.34 829.90,332.31 833.19,334.28 836.49,336.25 839.78,338.22 843.07,340.20 846.36,342.17 849.65,344.14 852.94,346.11 856.23,348.08 859.53,350.05 862.82,352.02 866.11,353.99 869.40,355.97 872.69,357.94 875.98,359.91 879.28,361.88 882.57,363.85 885.86,365.82 889.15,367.79 888.96,371.63 888.78,375.46 888.59,379.29 888.40,383.12 888.22,386.96 888.03,390.79 887.84,394.62 887.66,398.45 887.47,402.29 887.28,406.12 887.10,409.95 886.91,413.78 886.72,417.62 886.54,421.45 886.35,425.28 886.16,429.11 885.97,432.95 885.79,436.78 885.60,440.61 885.41,444.44 885.23,448.28 885.04,452.11 884.85,455.94 884.67,459.77 884.48,463.61 884.29,467.44 884.11,471.27 883.92,475.10 883.73,478.94 883.55,482.77 883.36,486.60 883.17,490.43 882.99,494.27 882.80,498.10 882.61,501.93 882.43,505.76 882.24,509.60 882.05,513.43 881.87,517.26 881.68,521.09 881.49,524.93 881.31,528.76 881.12,532.59 880.93,536.42 880.74,540.26 880.56,544.09 880.37,547.92 880.18,551.75 880.00,555.59 877.81,552.42 875.62,549.25 873.43,546.08 871.23,542.91 869.04,539.74 866.85,536.56 864.66,533.39 862.47,530.22 860.28,527.05 858.09,523.88 855.90,520.71 853.71,517.54 851.52,514.37 849.33,511.20 847.14,508.03 844.95,504.86 842.75,501.69 840.56,498.52 838.37,495.35 836.18,492.18 833.99,489.01 831.80,485.84 829.61,482.67 827.42,479.50 825.23,476.33 823.04,473.16 820.85,469.99 818.66,466.82 816.47,463.65 814.27,460.48 812.08,457.31 809.89,454.13 807.70,450.96 805.51,447.79 803.32,444.62 801.13,441.45 798.94,438.28 796.75,435.11 794.56,431.94 792.37,428.77 790.18,425.60 787.99,422.43 785.79,419.26 783.60,416.09 781.41,412.92 779.22,409.75 777.03,406.58 774.84,403.41 772.65,400.24 770.46,397.07 768.27,393.90 766.08,390.73 763.89,387.56 761.70,384.39 759.51,381.22 757.31,378.05 755.12,374.88 752.93,371.70 750.74,368.53 748.55,365.36 746.36,362.19 744.17,359.02 741.98,355.85 739.79,352.68 737.60,349.51 735.41,346.34 733.22,343.17 731.03,340.00 728.83,336.83 726.64,333.66 724.45,330.49 722.26,327.32 720.07,324.15 717.88,320.98 715.69,317.81 713.50,314.64 711.31,311.47 709.12,308.30 706.93,305.13 704.74,301.96 702.55,298.79 700.36,295.62 698.16,292.45 695.97,289.27 693.78,286.10 691.59,282.93 689.40,279.76 687.21,276.59 685.02,273.42 682.83,270.25 680.64,267.08 678.45,263.91 676.26,260.74 674.07,257.57 671.88,254.40 669.68,251.23 667.49,248.06 665.30,244.89 663.11,241.72 660.92,238.55 658.73,235.38 656.54,232.21 654.35,229.04 652.16,225.87 648.27,225.77 644.39,225.67 640.50,225.57 636.62,225.47 632.74,225.37 628.85,225.27 624.97,225.18 621.08,225.08 617.20,224.98 613.31,224.88 609.43,224.78 605.54,224.68 601.66,224.58 597.77,224.48 593.89,224.39 590.00,224.29 586.12,224.19 582.24,224.09 578.35,223.99 574.47,223.89 570.58,223.79 566.70,223.69 562.81,223.60 558.93,223.50 555.04,223.40 551.16,223.30 547.27,223.20 543.39,223.10 539.50,223.00 535.62,222.90 531.74,222.80 527.85,222.71 523.97,222.61 520.08,222.51 516.20,222.41 512.31,222.31 508.43,222.21 504.54,222.11 500.66,222.01 496.77,221.92 492.89,221.82 489.01,221.72 485.12,221.62 481.24,221.52 477.35,221.42 473.47,221.32 469.58,221.22 465.70,221.13 461.81,221.03 457.93,220.93 454.04,220.83 450.16,220.73 446.27,220.63 442.39,220.53 438.51,220.43 434.62,220.34 430.74,220.24 426.85,220.14 422.97,220.04 419.08,219.94 415.20,219.84 411.31,219.74 407.43,219.64 403.54,219.55 399.66,219.45 395.77,219.35 391.89,219.25 388.01,219.15 384.12,219.05 380.24,218.95 376.35,218.85 372.47,218.75 368.58,218.66 364.70,218.56 360.81,218.46 356.93,218.36 353.04,218.26 349.16,218.16 345.27,218.06 341.39,217.96 337.51,217.87 333.62,217.77 329.74,217.67 325.85,217.57 321.97,217.47 318.08,217.37 314.20,217.27 310.31,217.17 306.43,217.08 302.54,216.98 298.66,216.88 294.78,216.78 290.89,216.68 287.01,216.58 283.12,216.48 279.24,216.38 275.35,216.29 271.47,216.19 267.58,216.09 263.70,215.99 259.81,215.89 255.93,215.79 252.04,215.69 248.16,215.59 244.28,215.50 240.39,215.40 236.51,215.30 232.62,215.20 236.51,215.30 240.39,215.40 244.28,215.50 248.16,215.59 252.04,215.69 255.93,215.79 259.81,215.89 263.70,215.99 267.58,216.09 271.47,216.19 275.35,216.29 279.24,216.38 283.12,216.48 287.01,216.58 290.89,216.68 294.78,216.78 298.66,216.88 302.54,216.98 306.43,217.08 310.31,217.17 314.20,217.27 318.08,217.37 321.97,217.47 325.85,217.57 329.74,217.67 333.62,217.77 337.51,217.87 341.39,217.96 345.27,218.06 349.16,218.16 353.04,218.26 356.93,218.36 360.81,218.46 364.70,218.56 368.58,218.66 372.47,218.75 376.35,218.85 380.24,218.95 384.12,219.05 388.01,219.15 391.89,219.25 395.77,219.35 399.66,219.45 403.54,219.55 407.43,219.64 411.31,219.74 415.20,219.84 419.08,219.94 422.97,220.04 426.85,220.14 430.74,220.24 434.62,220.34 438.51,220.43 442.39,220.53 446.27,220.63 450.16,220.73 454.04,220.83 457.93,220.93 461.81,221.03 465.70,221.13 469.58,221.22 473.47,221.32 477.35,221.42 481.24,221.52 485.12,221.62 489.01,221.72 492.89,221.82 496.77,221.92 500.66,222.01 504.54,222.11 508.43,222.21 512.31,222.31 516.20,222.41 520.08,222.51 523.97,222.61 527.85,222.71 531.74,222.80 535.62,222.90 539.50,223.00 543.39,223.10 547.27,223.20 551.16,223.30 555.04,223.40 558.93,223.50 562.81,223.60 566.70,223.69 570.58,223.79 574.47,223.89 578.35,223.99 582.24,224.09 586.12,224.19 590.00,224.29 593.89,224.39 597.77,224.48 601.66,224.58 605.54,224.68 609.43,224.78 613.31,224.88 617.20,224.98 621.08,225.08 624.97,225.18 628.85,225.27 632.74,225.37 636.62,225.47 640.50,225.57 644.39,225.67 648.27,225.77 652.16,225.87 655.45,227.84 658.74,229.81 662.03,231.78 665.32,233.75 668.62,235.72 671.91,237.69 675.20,239.67 678.49,241.64 681.78,243.61 685.07,245.58 688.37,247.55 691.66,249.52 694.95,251.49 698.24,253.46 701.53,255.43 704.82,257.41 708.11,259.38 711.41,261.35 714.70,263.32 717.99,265.29 721.28,267.26 724.57,269.23 727.86,271.20 731.16,273.18 734.45,275.15 737.74,277.12 741.03,279.09 744.32,281.06 747.61,283.03 750.90,285.00 754.20,286.97 757.49,288.95 760.78,290.92 764.07,292.89 767.36,294.86 770.65,296.83 773.95,298.80 777.24,300.77 780.53,302.74 783.82,304.71 787.11,306.69 790.40,308.66 793.70,310.63 796.99,312.60 800.28,314.57 803.57,316.54 806.86,318.51 810.15,320.48 813.44,322.46 816.74,324.43 820.03,326.40 823.32,328.37 826.61,330.34 829.90,332.31 833.19,334.28 836.49,336.25 839.78,338.22 843.07,340.20 846.36,342.17 849.65,344.14 852.94,346.11 856.23,348.08 859.53,350.05 862.82,352.02 866.11,353.99 869.40,355.97 872.69,357.94 875.98,359.91 879.28,361.88 882.57,363.85 885.86,365.82 889.15,367.79 888.96,371.63 888.78,375.46 888.59,379.29 888.40,383.12 888.22,386.96 888.03,390.79 887.84,394.62 887.66,398.45 887.47,402.29 887.28,406.12 887.10,409.95 886.91,413.78 886.72,417.62 886.54,421.45 886.35,425.28 886.16,429.11 885.97,432.95 885.79,436.78 885.60,440.61 885.41,444.44 885.23,448.28 885.04,452.11 884.85,455.94 884.67,459.77 884.48,463.61 884.29,467.44 884.11,471.27 883.92,475.10 883.73,478.94 883.55,482.77 883.36,486.60 883.17,490.43 882.99,494.27 882.80,498.10 882.61,501.93 882.43,505.76 882.24,509.60 882.05,513.43 881.87,517.26 881.68,521.09 881.49,524.93 881.31,528.76 881.12,532.59 880.93,536.42 880.74,540.26 880.56,544.09 880.37,547.92 880.18,551.75 880.00,555.59 877.81,552.42 875.62,549.25 873.43,546.08 871.23,542.91 869.04,539.74 866.85,536.56 864.66,533.39 862.47,530.22 860.28,527.05 858.09,523.88 855.90,520.71 853.71,517.54 851.52,514.37 849.33,511.20 847.14,508.03 844.95,504.86 842.75,501.69 840.56,498.52 838.37,495.35 836.18,492.18 833.99,489.01 831.80,485.84 829.61,482.67 827.42,479.50 825.23,476.33 823.04,473.16 820.85,469.99 818.66,466.82 816.47,463.65 814.27,460.48 812.08,457.31 809.89,454.13 807.70,450.96 805.51,447.79 803.32,444.62 801.13,441.45 798.94,438.28 796.75,435.11 794.56,431.94 792.37,428.77 790.18,425.60 787.99,422.43 785.79,419.26 783.60,416.09 781.41,412.92 779.22,409.75 777.03,406.58 774.84,403.41 772.65,400.24 770.46,397.07 768.27,393.90 766.08,390.73 763.89,387.56 761.70,384.39 759.51,381.22 757.31,378.05 755.12,374.88 752.93,371.70 750.74,368.53 748.55,365.36 746.36,362.19 744.17,359.02 741.98,355.85 739.79,352.68 737.60,349.51 735.41,346.34 733.22,343.17 731.03,340.00 728.83,336.83 726.64,333.66 724.45,330.49 722.26,327.32 720.07,324.15 717.88,320.98 715.69,317.81 713.50,314.64 711.31,311.47 709.12,308.30 706.93,305.13 704.74,301.96 702.55,298.79 700.36,295.62 698.16,292.45 695.97,289.27 693.78,286.10 691.59,282.93 689.40,279.76 687.21,276.59 685.02,273.42 682.83,270.25 680.64,267.08 678.45,263.91 676.26,260.74 674.07,257.57 671.88,254.40 669.68,251.23 667.49,248.06 665.30,244.89 663.11,241.72 660.92,238.55 658.73,235.38 656.54,232.21 654.35,229.04 652.16,225.87 648.27,225.77 644.39,225.67 640.50,225.57 636.62,225.47 632.74,225.37 628.85,225.27 624.97,225.18 621.08,225.08 617.20,224.98 613.31,224.88 609.43,224.78 605.54,224.68 601.66,224.58 597.77,224.48 593.89,224.39 590.00,224.29 586.12,224.19 582.24,224.09 578.35,223.99 574.47,223.89 570.58,223.79 566.70,223.69 562.81,223.60 558.93,223.50 555.04,223.40 551.16,223.30 547.27,223.20 543.39,223.10 539.50,223.00 535.62,222.90 531.74,222.80 527.85,222.71 523.97,222.61 520.08,222.51 516.20,222.41 512.31,222.31 508.43,222.21 504.54,222.11 500.66,222.01 496.77,221.92 492.89,221.82 489.01,221.72 485.12,221.62 481.24,221.52 477.35,221.42 473.47,221.32 469.58,221.22 465.70,221.13 461.81,221.03 457.93,220.93 454.04,220.83 450.16,220.73 446.27,220.63 442.39,220.53 438.51,220.43 434.62,220.34 430.74,220.24 426.85,220.14 422.97,220.04 419.08,219.94 415.20,219.84 411.31,219.74 407.43,219.64 403.54,219.55 399.66,219.45 395.77,219.35 391.89,219.25 388.01,219.15 384.12,219.05 380.24,218.95 376.35,218.85 372.47,218.75 368.58,218.66 364.70,218.56 360.81,218.46 356.93,218.36 353.04,218.26 349.16,218.16 345.27,218.06 341.39,217.96 337.51,217.87 333.62,217.77 329.74,217.67 325.85,217.57 321.97,217.47 318.08,217.37 314.20,217.27 310.31,217.17 306.43,217.08 302.54,216.98 298.66,216.88 294.78,216.78 290.89,216.68 287.01,216.58 283.12,216.48 279.24,216.38 275.35,216.29 271.47,216.19 267.58,216.09 263.70,215.99 259.81,215.89 255.93,215.79 252.04,215.69 248.16,215.59 244.28,215.50 240.39,215.40 236.51,215.30 232.62,215.20" fill="none" stroke="#007eaa" stroke-width="4"/><polyline points="232.62,215.20 232.93,215.20 233.74,215.22 234.78,215.24 236.46,215.27 237.84,215.30 239.84,215.35 243.15,215.42 245.31,215.47 248.88,215.55 252.17,215.63 256.47,215.73 258.77,215.78 263.64,215.89 267.99,215.99 272.58,216.10 276.42,216.19 283.52,216.36 286.69,216.43 293.29,216.59 299.03,216.73 304.99,216.87 311.15,217.02 316.23,217.14 322.75,217.30 329.47,217.46 336.38,217.63 343.48,217.80 352.23,218.02 358.20,218.17 367.37,218.39 373.62,218.55 383.19,218.79 391.34,218.99 397.96,219.16 409.80,219.46 414.96,219.59 425.44,219.85 436.12,220.12 441.53,220.26 450.67,220.49 461.80,220.78 473.11,221.06 480.75,221.26 488.47,221.46 500.19,221.76 512.08,222.07 520.10,222.27 530.21,222.54 540.44,222.80 550.77,223.07 559.11,223.29 569.62,223.56 582.36,223.90 595.24,224.24 603.90,224.47 614.81,224.76 625.80,225.06 636.84,225.42 647.77,225.92 660.63,226.91 668.97,227.88 677.09,229.17 688.75,231.80 697.92,234.69 706.53,238.23 714.55,242.41 723.31,248.27 728.64,252.64 734.89,258.41 740.86,264.36 746.65,270.39 752.37,276.41 756.94,281.16 762.71,286.98 768.55,292.65 775.70,299.21 783.00,305.50 786.70,308.55 794.23,314.46 799.33,318.27 808.39,324.70 813.63,328.26 818.93,331.75 828.29,337.67 837.78,343.37 843.24,346.56 851.50,351.24 858.43,355.05 865.37,358.84 872.19,362.77 878.76,367.00 882.52,369.71 889.53,375.60 894.77,380.97 899.40,386.71 902.62,391.55 906.60,399.13 909.12,405.68 910.85,412.37 911.68,417.78 911.98,427.28 911.32,434.03 910.27,439.38 908.34,445.99 905.21,453.83 902.76,459.02 899.49,465.56 896.14,472.19 892.21,480.31 889.73,485.83 886.34,494.30 884.33,500.06 882.16,507.37 880.37,514.80 878.74,523.84 877.93,529.90 877.22,535.92 876.12,544.75 875.04,551.82 873.71,558.51 872.04,564.74 869.55,571.45 868.07,574.46 865.26,578.81 861.37,582.81 857.13,585.35 854.27,586.21 850.16,586.41 847.62,585.93 844.08,584.48 841.91,583.09 838.83,580.37 836.89,578.14 834.58,574.93 832.41,571.30 830.38,567.31 828.47,562.98 826.67,558.35 825.29,554.44 823.31,548.26 821.73,542.83 819.57,534.85 818.64,531.31 817.04,525.24 815.37,519.00 813.20,511.28 811.63,506.02 809.96,500.67 806.74,491.10 805.24,486.93 801.48,477.04 799.75,472.74 796.08,464.04 792.80,456.69 789.33,449.26 785.68,441.76 781.04,432.66 776.97,425.02 774.44,420.40 769.19,411.11 764.63,403.31 759.91,395.45 754.05,385.95 750.04,379.58 743.85,369.95 738.56,361.87 733.16,353.73 728.76,347.17 723.17,338.93 715.20,327.27 711.73,322.24 704.74,312.09 701.20,306.98 694.09,296.66 686.92,286.22 680.93,277.43 676.13,270.32 668.96,259.51 662.96,250.43 658.02,243.20 650.21,232.52 643.24,223.85 635.77,215.45 629.43,208.97 619.29,199.72 610.32,192.54 600.94,185.92 591.20,179.90 589.01,178.77 585.27,176.85 582.43,175.49 578.46,173.85 573.13,172.13 568.28,171.02 564.48,170.42 559.92,169.99 554.14,169.90 550.09,170.13 544.84,170.77 538.33,172.11 535.00,173.01 527.08,175.67 523.63,177.04 517.78,179.54 511.80,182.21 505.65,184.99 496.72,188.96 490.10,191.78 484.64,194.00 479.04,196.16 470.37,199.26 462.91,201.71 453.66,204.47 447.33,206.18 439.23,208.17 430.94,210.00 422.46,211.67 413.80,213.16 404.97,214.48 394.16,215.85 384.98,216.82 375.66,217.63 366.20,218.29 356.60,218.80 348.83,219.11 340.99,219.34 327.07,219.55 317.00,219.57 308.86,219.50 296.52,219.28 290.30,219.12 279.85,218.78 267.18,218.25 254.38,217.60 245.76,217.11 232.73,216.31 221.91,215.58 211.25,214.83 202.91,214.19 190.80,213.19 183.04,212.52 173.77,211.74 165.00,211.08 156.78,210.60 149.17,210.39 142.19,210.53 135.87,211.08 131.33,211.91 124.77,214.46 122.60,215.94 119.19,219.79 118.43,221.43 117.28,224.67 116.39,226.35 115.61,227.36 114.74,228.26 113.98,228.94 113.65,229.21 113.59,229.26 113.81,229.09 114.30,228.70 114.89,228.24 115.85,227.47 117.05,226.50 118.82,225.06 120.56,223.65 121.71,222.71 124.73,220.28 127.16,218.35 129.84,216.27 131.56,214.96 135.26,212.21 139.32,209.32 143.01,206.87 147.02,204.45 150.45,202.58 156.02,199.95 160.01,198.36 166.39,196.32 172.07,194.98 178.05,194.05 184.30,193.55 190.77,193.52 196.08,193.85 202.87,194.68 211.18,196.26 216.81,197.59 225.45,199.73 231.34,201.16 240.43,203.20 246.64,204.45 252.97,205.62 262.68,207.25 269.29,208.26 279.41,209.65 289.75,210.93 296.77,211.71 305.67,212.64 314.72,213.49 323.90,214.29 333.22,215.02 340.77,215.58 352.24,216.35 359.99,216.83 373.73,217.60 381.68,218.01 391.73,218.50 401.88,218.95 414.21,219.46 420.42,219.71 432.97,220.17 445.66,220.61 454.20,220.89 464.95,221.22 477.98,221.61 486.73,221.86 495.54,222.11 506.65,222.41 522.39,222.82 531.47,223.06 545.23,223.41 554.48,223.64 566.12,223.92 577.83,224.21 589.60,224.49 601.41,224.77 613.27,225.05 625.16,225.33 637.08,225.66 649.03,226.23 660.92,227.22 672.68,228.80 684.25,231.05 697.76,234.74 708.64,238.67 717.05,242.38 727.16,247.69 736.82,253.79 747.77,262.14 754.68,268.29 761.32,274.81 770.97,285.05 780.49,295.57 786.92,302.62 795.16,311.33 805.47,321.49 812.62,328.02 823.81,337.35 831.59,343.23 841.64,350.15 852.08,356.56 860.66,361.35 871.53,367.18 886.72,375.51 895.28,380.51 907.79,388.40 915.83,393.95 923.55,399.75 932.72,407.34 942.93,416.86 952.18,426.80 956.45,431.90 962.94,440.53 969.72,451.05 974.51,459.89 977.78,466.94 981.72,477.42 984.45,487.70 985.84,496.02 986.41,504.05 986.28,510.20 985.39,517.49 983.72,524.28 980.78,531.67 977.60,537.13 974.64,541.01 970.49,545.26 965.89,548.81 961.94,551.15 954.52,554.23 948.87,555.67 944.14,556.42 937.95,556.91 931.51,556.89 924.87,556.40 918.08,555.52 912.53,554.56 904.09,552.62 896.99,550.51 887.01,546.78 881.32,544.25 874.28,540.69 867.36,536.70 860.59,532.31 853.99,527.56 847.57,522.45 841.32,516.99 837.65,513.53 830.50,506.22 824.73,499.73 818.01,491.50 813.62,485.78 808.19,478.43 801.74,469.33 796.39,461.55 792.11,455.20 786.75,447.13 781.38,438.92 777.07,432.26 769.48,420.42 766.21,415.27 757.41,401.36 754.09,396.07 744.03,379.98 738.37,370.91 730.39,358.05 726.95,352.48 720.05,341.25 713.10,329.91 708.43,322.28 702.55,312.68 696.63,303.02 690.67,293.28 683.47,281.50 677.44,271.60 671.40,261.63 667.77,255.61 659.25,241.47 654.27,233.38 646.44,221.38 640.92,213.51 635.12,205.80 624.26,192.92 617.67,185.97 605.55,174.64 598.31,168.69 590.88,163.17 580.98,156.69 579.68,155.94 575.92,154.07 573.34,153.01 569.72,151.79 564.89,150.60 561.40,150.02 556.76,149.58 551.85,149.50 545.65,149.93 541.37,150.55 534.76,152.02 531.39,152.99 524.56,155.41 518.80,157.89 513.01,160.80 506.00,164.74 500.06,168.28 496.43,170.46 490.24,174.15 483.84,177.84 475.87,182.21 467.55,186.45 461.81,189.18 454.41,192.45 443.63,196.73 437.26,199.01 429.10,201.67 420.72,204.13 413.87,205.94 405.13,208.04 396.20,209.94 385.28,212.02 377.87,213.30 366.64,215.05 359.16,216.06 348.12,217.36 340.93,218.05 332.26,218.73 322.36,219.26 316.10,219.44 307.33,219.49 303.20,219.41 295.51,219.09 289.57,218.72 283.09,218.19 280.12,217.91 275.60,217.44 270.73,216.92 266.42,216.47 263.86,216.22 260.94,215.96 258.26,215.78 255.36,215.62 253.60,215.56 251.60,215.51 249.77,215.48 248.42,215.47 246.29,215.46 245.17,215.46 243.91,215.47 242.98,215.47 241.52,215.46 240.60,215.45 239.95,215.43 239.07,215.41 238.55,215.39 237.84,215.35" fill="none" stroke="#db6524" stroke-width="2.5" stroke-dasharray="7 4"/><circle cx="232.62153725389064" cy="215.19866799232187" r="6" fill="#142b43"/><text x="550" y="688" text-anchor="middle">Field X (metres); field Y increases upward; equal XY scale</text></g></svg>